solid Platform_Rocker1_Default_sldprt
   facet normal -1.000000e+000 -1.224647e-016 0.000000e+000
      outer loop
         vertex 8.572527e-015 -7.000000e+001 1.000000e+001
         vertex -3.749400e-031 3.061617e-015 1.000000e+001
         vertex 8.572527e-015 -7.000000e+001 0.000000e+000
      endloop
   endfacet
   facet normal -1.000000e+000 -1.224647e-016 0.000000e+000
      outer loop
         vertex 8.572527e-015 -7.000000e+001 0.000000e+000
         vertex -3.749400e-031 3.061617e-015 1.000000e+001
         vertex -3.749400e-031 3.061617e-015 0.000000e+000
      endloop
   endfacet
   facet normal 0.000000e+000 -1.000000e+000 0.000000e+000
      outer loop
         vertex 5.000000e+001 -7.000000e+001 1.000000e+001
         vertex 8.572527e-015 -7.000000e+001 1.000000e+001
         vertex 5.000000e+001 -7.000000e+001 0.000000e+000
      endloop
   endfacet
   facet normal 0.000000e+000 -1.000000e+000 0.000000e+000
      outer loop
         vertex 5.000000e+001 -7.000000e+001 0.000000e+000
         vertex 8.572527e-015 -7.000000e+001 1.000000e+001
         vertex 8.572527e-015 -7.000000e+001 0.000000e+000
      endloop
   endfacet
   facet normal 1.000000e+000 9.912705e-017 0.000000e+000
      outer loop
         vertex 5.000000e+001 0.000000e+000 1.000000e+001
         vertex 5.000000e+001 -7.000000e+001 1.000000e+001
         vertex 5.000000e+001 0.000000e+000 0.000000e+000
      endloop
   endfacet
   facet normal 1.000000e+000 9.912705e-017 0.000000e+000
      outer loop
         vertex 5.000000e+001 0.000000e+000 0.000000e+000
         vertex 5.000000e+001 -7.000000e+001 1.000000e+001
         vertex 5.000000e+001 -7.000000e+001 0.000000e+000
      endloop
   endfacet
   facet normal 0.000000e+000 0.000000e+000 1.000000e+000
      outer loop
         vertex 0.000000e+000 0.000000e+000 1.000000e+001
         vertex 8.572527e-015 -7.000000e+001 1.000000e+001
         vertex 5.000000e+001 -7.000000e+001 1.000000e+001
      endloop
   endfacet
   facet normal 0.000000e+000 0.000000e+000 1.000000e+000
      outer loop
         vertex 5.000000e+001 -7.000000e+001 1.000000e+001
         vertex 5.000000e+001 0.000000e+000 1.000000e+001
         vertex 0.000000e+000 0.000000e+000 1.000000e+001
      endloop
   endfacet
   facet normal 0.000000e+000 0.000000e+000 1.000000e+000
      outer loop
         vertex 0.000000e+000 0.000000e+000 1.000000e+001
         vertex 5.000000e+001 0.000000e+000 1.000000e+001
         vertex 4.978612e+001 3.263155e+000 1.000000e+001
      endloop
   endfacet
   facet normal 0.000000e+000 0.000000e+000 1.000000e+000
      outer loop
         vertex 0.000000e+000 0.000000e+000 1.000000e+001
         vertex 4.978612e+001 3.263155e+000 1.000000e+001
         vertex 4.914815e+001 6.470476e+000 1.000000e+001
      endloop
   endfacet
   facet normal 0.000000e+000 0.000000e+000 1.000000e+000
      outer loop
         vertex 4.914815e+001 6.470476e+000 1.000000e+001
         vertex 4.809699e+001 9.567085e+000 1.000000e+001
         vertex 0.000000e+000 0.000000e+000 1.000000e+001
      endloop
   endfacet
   facet normal 0.000000e+000 0.000000e+000 1.000000e+000
      outer loop
         vertex 0.000000e+000 0.000000e+000 1.000000e+001
         vertex 4.809699e+001 9.567085e+000 1.000000e+001
         vertex 4.665064e+001 1.250000e+001 1.000000e+001
      endloop
   endfacet
   facet normal 0.000000e+000 0.000000e+000 1.000000e+000
      outer loop
         vertex 0.000000e+000 0.000000e+000 1.000000e+001
         vertex 4.665064e+001 1.250000e+001 1.000000e+001
         vertex 4.483384e+001 1.521904e+001 1.000000e+001
      endloop
   endfacet
   facet normal 0.000000e+000 0.000000e+000 1.000000e+000
      outer loop
         vertex 4.483384e+001 1.521904e+001 1.000000e+001
         vertex 4.267767e+001 1.767767e+001 1.000000e+001
         vertex 0.000000e+000 0.000000e+000 1.000000e+001
      endloop
   endfacet
   facet normal 0.000000e+000 0.000000e+000 1.000000e+000
      outer loop
         vertex 0.000000e+000 0.000000e+000 1.000000e+001
         vertex 4.267767e+001 1.767767e+001 1.000000e+001
         vertex 4.021904e+001 1.983383e+001 1.000000e+001
      endloop
   endfacet
   facet normal 0.000000e+000 0.000000e+000 1.000000e+000
      outer loop
         vertex 0.000000e+000 0.000000e+000 1.000000e+001
         vertex 4.021904e+001 1.983383e+001 1.000000e+001
         vertex 3.750000e+001 2.165063e+001 1.000000e+001
      endloop
   endfacet
   facet normal 0.000000e+000 0.000000e+000 1.000000e+000
      outer loop
         vertex 2.826315e+001 2.478612e+001 1.000000e+001
         vertex 2.500000e+001 2.500000e+001 1.000000e+001
         vertex 0.000000e+000 0.000000e+000 1.000000e+001
      endloop
   endfacet
   facet normal 0.000000e+000 0.000000e+000 1.000000e+000
      outer loop
         vertex 0.000000e+000 0.000000e+000 1.000000e+001
         vertex 2.500000e+001 2.500000e+001 1.000000e+001
         vertex 2.173685e+001 2.478612e+001 1.000000e+001
      endloop
   endfacet
   facet normal 0.000000e+000 0.000000e+000 1.000000e+000
      outer loop
         vertex 0.000000e+000 0.000000e+000 1.000000e+001
         vertex 2.173685e+001 2.478612e+001 1.000000e+001
         vertex 1.852952e+001 2.414815e+001 1.000000e+001
      endloop
   endfacet
   facet normal 0.000000e+000 0.000000e+000 1.000000e+000
      outer loop
         vertex 3.750000e+001 2.165063e+001 1.000000e+001
         vertex 3.456709e+001 2.309699e+001 1.000000e+001
         vertex 0.000000e+000 0.000000e+000 1.000000e+001
      endloop
   endfacet
   facet normal 0.000000e+000 0.000000e+000 1.000000e+000
      outer loop
         vertex 0.000000e+000 0.000000e+000 1.000000e+001
         vertex 3.456709e+001 2.309699e+001 1.000000e+001
         vertex 3.147048e+001 2.414815e+001 1.000000e+001
      endloop
   endfacet
   facet normal 0.000000e+000 0.000000e+000 1.000000e+000
      outer loop
         vertex 0.000000e+000 0.000000e+000 1.000000e+001
         vertex 3.147048e+001 2.414815e+001 1.000000e+001
         vertex 2.826315e+001 2.478612e+001 1.000000e+001
      endloop
   endfacet
   facet normal 0.000000e+000 0.000000e+000 1.000000e+000
      outer loop
         vertex 1.852952e+001 2.414815e+001 1.000000e+001
         vertex 1.543291e+001 2.309699e+001 1.000000e+001
         vertex 0.000000e+000 0.000000e+000 1.000000e+001
      endloop
   endfacet
   facet normal 0.000000e+000 0.000000e+000 1.000000e+000
      outer loop
         vertex 0.000000e+000 0.000000e+000 1.000000e+001
         vertex 1.543291e+001 2.309699e+001 1.000000e+001
         vertex 1.250000e+001 2.165063e+001 1.000000e+001
      endloop
   endfacet
   facet normal 0.000000e+000 0.000000e+000 1.000000e+000
      outer loop
         vertex 0.000000e+000 0.000000e+000 1.000000e+001
         vertex 1.250000e+001 2.165063e+001 1.000000e+001
         vertex 9.780964e+000 1.983383e+001 1.000000e+001
      endloop
   endfacet
   facet normal 0.000000e+000 0.000000e+000 1.000000e+000
      outer loop
         vertex 9.780964e+000 1.983383e+001 1.000000e+001
         vertex 7.322330e+000 1.767767e+001 1.000000e+001
         vertex 0.000000e+000 0.000000e+000 1.000000e+001
      endloop
   endfacet
   facet normal 0.000000e+000 0.000000e+000 1.000000e+000
      outer loop
         vertex 0.000000e+000 0.000000e+000 1.000000e+001
         vertex 7.322330e+000 1.767767e+001 1.000000e+001
         vertex 5.166166e+000 1.521904e+001 1.000000e+001
      endloop
   endfacet
   facet normal 0.000000e+000 0.000000e+000 1.000000e+000
      outer loop
         vertex 0.000000e+000 0.000000e+000 1.000000e+001
         vertex 5.166166e+000 1.521904e+001 1.000000e+001
         vertex 3.349365e+000 1.250000e+001 1.000000e+001
      endloop
   endfacet
   facet normal 0.000000e+000 0.000000e+000 1.000000e+000
      outer loop
         vertex 1.903012e+000 9.567085e+000 1.000000e+001
         vertex 8.518543e-001 6.470476e+000 1.000000e+001
         vertex 3.349365e+000 1.250000e+001 1.000000e+001
      endloop
   endfacet
   facet normal 0.000000e+000 0.000000e+000 1.000000e+000
      outer loop
         vertex 3.349365e+000 1.250000e+001 1.000000e+001
         vertex 8.518543e-001 6.470476e+000 1.000000e+001
         vertex 2.138785e-001 3.263155e+000 1.000000e+001
      endloop
   endfacet
   facet normal 0.000000e+000 0.000000e+000 1.000000e+000
      outer loop
         vertex 3.349365e+000 1.250000e+001 1.000000e+001
         vertex 2.138785e-001 3.263155e+000 1.000000e+001
         vertex 0.000000e+000 0.000000e+000 1.000000e+001
      endloop
   endfacet
   facet normal 0.000000e+000 0.000000e+000 -1.000000e+000
      outer loop
         vertex 3.024307e+001 8.515291e+000 0.000000e+000
         vertex 4.021904e+001 1.983383e+001 0.000000e+000
         vertex 3.160675e+001 7.506723e+000 0.000000e+000
      endloop
   endfacet
   facet normal 0.000000e+000 0.000000e+000 -1.000000e+000
      outer loop
         vertex 3.160675e+001 7.506723e+000 0.000000e+000
         vertex 4.021904e+001 1.983383e+001 0.000000e+000
         vertex 4.267767e+001 1.767767e+001 0.000000e+000
      endloop
   endfacet
   facet normal 0.000000e+000 0.000000e+000 -1.000000e+000
      outer loop
         vertex 3.160675e+001 7.506723e+000 0.000000e+000
         vertex 4.267767e+001 1.767767e+001 0.000000e+000
         vertex 3.278036e+001 6.282200e+000 0.000000e+000
      endloop
   endfacet
   facet normal 0.000000e+000 0.000000e+000 -1.000000e+000
      outer loop
         vertex 3.278036e+001 6.282200e+000 0.000000e+000
         vertex 4.267767e+001 1.767767e+001 0.000000e+000
         vertex 4.483384e+001 1.521904e+001 0.000000e+000
      endloop
   endfacet
   facet normal 0.000000e+000 0.000000e+000 -1.000000e+000
      outer loop
         vertex 3.278036e+001 6.282200e+000 0.000000e+000
         vertex 4.483384e+001 1.521904e+001 0.000000e+000
         vertex 3.373014e+001 4.876949e+000 0.000000e+000
      endloop
   endfacet
   facet normal 0.000000e+000 0.000000e+000 -1.000000e+000
      outer loop
         vertex 3.373014e+001 4.876949e+000 0.000000e+000
         vertex 4.483384e+001 1.521904e+001 0.000000e+000
         vertex 4.665064e+001 1.250000e+001 0.000000e+000
      endloop
   endfacet
   facet normal 0.000000e+000 0.000000e+000 -1.000000e+000
      outer loop
         vertex 3.373014e+001 4.876949e+000 0.000000e+000
         vertex 4.665064e+001 1.250000e+001 0.000000e+000
         vertex 3.442878e+001 3.331398e+000 0.000000e+000
      endloop
   endfacet
   facet normal 0.000000e+000 0.000000e+000 -1.000000e+000
      outer loop
         vertex 2.710679e+001 -9.775552e+000 0.000000e+000
         vertex 2.872857e+001 -9.278891e+000 0.000000e+000
         vertex 5.000000e+001 -7.000000e+001 0.000000e+000
      endloop
   endfacet
   facet normal 0.000000e+000 0.000000e+000 -1.000000e+000
      outer loop
         vertex 5.000000e+001 -7.000000e+001 0.000000e+000
         vertex 2.872857e+001 -9.278891e+000 0.000000e+000
         vertex 3.024307e+001 -8.515291e+000 0.000000e+000
      endloop
   endfacet
   facet normal 0.000000e+000 0.000000e+000 -1.000000e+000
      outer loop
         vertex 3.442878e+001 -3.331398e+000 0.000000e+000
         vertex 3.485616e+001 -1.690008e+000 0.000000e+000
         vertex 5.000000e+001 2.478176e-015 0.000000e+000
      endloop
   endfacet
   facet normal 0.000000e+000 0.000000e+000 -1.000000e+000
      outer loop
         vertex 5.000000e+001 2.478176e-015 0.000000e+000
         vertex 3.485616e+001 -1.690008e+000 0.000000e+000
         vertex 3.500000e+001 -2.449294e-015 0.000000e+000
      endloop
   endfacet
   facet normal 0.000000e+000 0.000000e+000 -1.000000e+000
      outer loop
         vertex 5.000000e+001 2.478176e-015 0.000000e+000
         vertex 3.500000e+001 -2.449294e-015 0.000000e+000
         vertex 4.978612e+001 3.263155e+000 0.000000e+000
      endloop
   endfacet
   facet normal 0.000000e+000 0.000000e+000 -1.000000e+000
      outer loop
         vertex 4.978612e+001 3.263155e+000 0.000000e+000
         vertex 3.500000e+001 -2.449294e-015 0.000000e+000
         vertex 3.485616e+001 1.690008e+000 0.000000e+000
      endloop
   endfacet
   facet normal 0.000000e+000 0.000000e+000 -1.000000e+000
      outer loop
         vertex 4.978612e+001 3.263155e+000 0.000000e+000
         vertex 3.485616e+001 1.690008e+000 0.000000e+000
         vertex 4.914815e+001 6.470476e+000 0.000000e+000
      endloop
   endfacet
   facet normal 0.000000e+000 0.000000e+000 -1.000000e+000
      outer loop
         vertex 4.914815e+001 6.470476e+000 0.000000e+000
         vertex 3.485616e+001 1.690008e+000 0.000000e+000
         vertex 3.442878e+001 3.331398e+000 0.000000e+000
      endloop
   endfacet
   facet normal 0.000000e+000 0.000000e+000 -1.000000e+000
      outer loop
         vertex 4.914815e+001 6.470476e+000 0.000000e+000
         vertex 3.442878e+001 3.331398e+000 0.000000e+000
         vertex 4.809699e+001 9.567085e+000 0.000000e+000
      endloop
   endfacet
   facet normal 0.000000e+000 0.000000e+000 -1.000000e+000
      outer loop
         vertex 4.809699e+001 9.567085e+000 0.000000e+000
         vertex 3.442878e+001 3.331398e+000 0.000000e+000
         vertex 4.665064e+001 1.250000e+001 0.000000e+000
      endloop
   endfacet
   facet normal 0.000000e+000 0.000000e+000 -1.000000e+000
      outer loop
         vertex 2.542441e+001 9.990990e+000 0.000000e+000
         vertex 2.826315e+001 2.478612e+001 0.000000e+000
         vertex 2.710679e+001 9.775552e+000 0.000000e+000
      endloop
   endfacet
   facet normal 0.000000e+000 0.000000e+000 -1.000000e+000
      outer loop
         vertex 2.710679e+001 9.775552e+000 0.000000e+000
         vertex 2.826315e+001 2.478612e+001 0.000000e+000
         vertex 3.147048e+001 2.414815e+001 0.000000e+000
      endloop
   endfacet
   facet normal 0.000000e+000 0.000000e+000 -1.000000e+000
      outer loop
         vertex 2.710679e+001 9.775552e+000 0.000000e+000
         vertex 3.147048e+001 2.414815e+001 0.000000e+000
         vertex 2.872857e+001 9.278891e+000 0.000000e+000
      endloop
   endfacet
   facet normal 0.000000e+000 0.000000e+000 -1.000000e+000
      outer loop
         vertex 2.872857e+001 9.278891e+000 0.000000e+000
         vertex 3.147048e+001 2.414815e+001 0.000000e+000
         vertex 3.456709e+001 2.309699e+001 0.000000e+000
      endloop
   endfacet
   facet normal 0.000000e+000 0.000000e+000 -1.000000e+000
      outer loop
         vertex 2.872857e+001 9.278891e+000 0.000000e+000
         vertex 3.456709e+001 2.309699e+001 0.000000e+000
         vertex 3.024307e+001 8.515291e+000 0.000000e+000
      endloop
   endfacet
   facet normal 0.000000e+000 0.000000e+000 -1.000000e+000
      outer loop
         vertex 3.024307e+001 8.515291e+000 0.000000e+000
         vertex 3.456709e+001 2.309699e+001 0.000000e+000
         vertex 3.750000e+001 2.165063e+001 0.000000e+000
      endloop
   endfacet
   facet normal 0.000000e+000 0.000000e+000 -1.000000e+000
      outer loop
         vertex 3.024307e+001 8.515291e+000 0.000000e+000
         vertex 3.750000e+001 2.165063e+001 0.000000e+000
         vertex 4.021904e+001 1.983383e+001 0.000000e+000
      endloop
   endfacet
   facet normal 0.000000e+000 0.000000e+000 -1.000000e+000
      outer loop
         vertex 1.503603e+001 -8.480592e-001 0.000000e+000
         vertex 0.000000e+000 3.061617e-015 0.000000e+000
         vertex 1.503603e+001 8.480592e-001 0.000000e+000
      endloop
   endfacet
   facet normal 0.000000e+000 0.000000e+000 -1.000000e+000
      outer loop
         vertex 1.503603e+001 8.480592e-001 0.000000e+000
         vertex 0.000000e+000 3.061617e-015 0.000000e+000
         vertex 2.138785e-001 3.263155e+000 0.000000e+000
      endloop
   endfacet
   facet normal 0.000000e+000 0.000000e+000 -1.000000e+000
      outer loop
         vertex 1.503603e+001 8.480592e-001 0.000000e+000
         vertex 2.138785e-001 3.263155e+000 0.000000e+000
         vertex 1.532267e+001 2.519781e+000 0.000000e+000
      endloop
   endfacet
   facet normal 0.000000e+000 0.000000e+000 -1.000000e+000
      outer loop
         vertex 1.532267e+001 2.519781e+000 0.000000e+000
         vertex 2.138785e-001 3.263155e+000 0.000000e+000
         vertex 8.518543e-001 6.470476e+000 0.000000e+000
      endloop
   endfacet
   facet normal 0.000000e+000 0.000000e+000 -1.000000e+000
      outer loop
         vertex 1.532267e+001 2.519781e+000 0.000000e+000
         vertex 8.518543e-001 6.470476e+000 0.000000e+000
         vertex 1.588772e+001 4.119012e+000 0.000000e+000
      endloop
   endfacet
   facet normal 0.000000e+000 0.000000e+000 -1.000000e+000
      outer loop
         vertex 1.503603e+001 -8.480592e-001 0.000000e+000
         vertex 1.532267e+001 -2.519781e+000 0.000000e+000
         vertex 0.000000e+000 3.061617e-015 0.000000e+000
      endloop
   endfacet
   facet normal 0.000000e+000 0.000000e+000 -1.000000e+000
      outer loop
         vertex 0.000000e+000 3.061617e-015 0.000000e+000
         vertex 1.532267e+001 -2.519781e+000 0.000000e+000
         vertex 1.588772e+001 -4.119012e+000 0.000000e+000
      endloop
   endfacet
   facet normal 0.000000e+000 0.000000e+000 -1.000000e+000
      outer loop
         vertex 0.000000e+000 3.061617e-015 0.000000e+000
         vertex 1.588772e+001 -4.119012e+000 0.000000e+000
         vertex 8.572527e-015 -7.000000e+001 0.000000e+000
      endloop
   endfacet
   facet normal 0.000000e+000 0.000000e+000 -1.000000e+000
      outer loop
         vertex 8.572527e-015 -7.000000e+001 0.000000e+000
         vertex 1.588772e+001 -4.119012e+000 0.000000e+000
         vertex 1.671490e+001 -5.599748e+000 0.000000e+000
      endloop
   endfacet
   facet normal 0.000000e+000 0.000000e+000 -1.000000e+000
      outer loop
         vertex 1.671490e+001 -5.599748e+000 0.000000e+000
         vertex 1.778044e+001 -6.919389e+000 0.000000e+000
         vertex 8.572527e-015 -7.000000e+001 0.000000e+000
      endloop
   endfacet
   facet normal 0.000000e+000 0.000000e+000 -1.000000e+000
      outer loop
         vertex 8.572527e-015 -7.000000e+001 0.000000e+000
         vertex 1.778044e+001 -6.919389e+000 0.000000e+000
         vertex 1.905367e+001 -8.039971e+000 0.000000e+000
      endloop
   endfacet
   facet normal 0.000000e+000 0.000000e+000 -1.000000e+000
      outer loop
         vertex 8.572527e-015 -7.000000e+001 0.000000e+000
         vertex 1.905367e+001 -8.039971e+000 0.000000e+000
         vertex 2.049796e+001 -8.929258e+000 0.000000e+000
      endloop
   endfacet
   facet normal 0.000000e+000 0.000000e+000 -1.000000e+000
      outer loop
         vertex 2.049796e+001 8.929258e+000 0.000000e+000
         vertex 1.543291e+001 2.309699e+001 0.000000e+000
         vertex 2.207177e+001 9.561667e+000 0.000000e+000
      endloop
   endfacet
   facet normal 0.000000e+000 0.000000e+000 -1.000000e+000
      outer loop
         vertex 2.207177e+001 9.561667e+000 0.000000e+000
         vertex 1.543291e+001 2.309699e+001 0.000000e+000
         vertex 1.852952e+001 2.414815e+001 0.000000e+000
      endloop
   endfacet
   facet normal 0.000000e+000 0.000000e+000 -1.000000e+000
      outer loop
         vertex 2.207177e+001 9.561667e+000 0.000000e+000
         vertex 1.852952e+001 2.414815e+001 0.000000e+000
         vertex 2.372982e+001 9.919004e+000 0.000000e+000
      endloop
   endfacet
   facet normal 0.000000e+000 0.000000e+000 -1.000000e+000
      outer loop
         vertex 2.372982e+001 9.919004e+000 0.000000e+000
         vertex 1.852952e+001 2.414815e+001 0.000000e+000
         vertex 2.173685e+001 2.478612e+001 0.000000e+000
      endloop
   endfacet
   facet normal 0.000000e+000 0.000000e+000 -1.000000e+000
      outer loop
         vertex 2.372982e+001 9.919004e+000 0.000000e+000
         vertex 2.173685e+001 2.478612e+001 0.000000e+000
         vertex 2.542441e+001 9.990990e+000 0.000000e+000
      endloop
   endfacet
   facet normal 0.000000e+000 0.000000e+000 -1.000000e+000
      outer loop
         vertex 2.542441e+001 9.990990e+000 0.000000e+000
         vertex 2.173685e+001 2.478612e+001 0.000000e+000
         vertex 2.500000e+001 2.500000e+001 0.000000e+000
      endloop
   endfacet
   facet normal 0.000000e+000 0.000000e+000 -1.000000e+000
      outer loop
         vertex 2.542441e+001 9.990990e+000 0.000000e+000
         vertex 2.500000e+001 2.500000e+001 0.000000e+000
         vertex 2.826315e+001 2.478612e+001 0.000000e+000
      endloop
   endfacet
   facet normal 0.000000e+000 0.000000e+000 -1.000000e+000
      outer loop
         vertex 2.049796e+001 -8.929258e+000 0.000000e+000
         vertex 2.207177e+001 -9.561667e+000 0.000000e+000
         vertex 8.572527e-015 -7.000000e+001 0.000000e+000
      endloop
   endfacet
   facet normal 0.000000e+000 0.000000e+000 -1.000000e+000
      outer loop
         vertex 8.572527e-015 -7.000000e+001 0.000000e+000
         vertex 2.207177e+001 -9.561667e+000 0.000000e+000
         vertex 2.372982e+001 -9.919004e+000 0.000000e+000
      endloop
   endfacet
   facet normal 0.000000e+000 0.000000e+000 -1.000000e+000
      outer loop
         vertex 8.572527e-015 -7.000000e+001 0.000000e+000
         vertex 2.372982e+001 -9.919004e+000 0.000000e+000
         vertex 5.000000e+001 -7.000000e+001 0.000000e+000
      endloop
   endfacet
   facet normal 0.000000e+000 0.000000e+000 -1.000000e+000
      outer loop
         vertex 5.000000e+001 -7.000000e+001 0.000000e+000
         vertex 2.372982e+001 -9.919004e+000 0.000000e+000
         vertex 2.542441e+001 -9.990990e+000 0.000000e+000
      endloop
   endfacet
   facet normal 0.000000e+000 0.000000e+000 -1.000000e+000
      outer loop
         vertex 5.000000e+001 -7.000000e+001 0.000000e+000
         vertex 2.542441e+001 -9.990990e+000 0.000000e+000
         vertex 2.710679e+001 -9.775552e+000 0.000000e+000
      endloop
   endfacet
   facet normal 0.000000e+000 0.000000e+000 -1.000000e+000
      outer loop
         vertex 8.518543e-001 6.470476e+000 0.000000e+000
         vertex 1.903012e+000 9.567085e+000 0.000000e+000
         vertex 1.588772e+001 4.119012e+000 0.000000e+000
      endloop
   endfacet
   facet normal 0.000000e+000 0.000000e+000 -1.000000e+000
      outer loop
         vertex 1.588772e+001 4.119012e+000 0.000000e+000
         vertex 1.903012e+000 9.567085e+000 0.000000e+000
         vertex 3.349365e+000 1.250000e+001 0.000000e+000
      endloop
   endfacet
   facet normal 0.000000e+000 0.000000e+000 -1.000000e+000
      outer loop
         vertex 1.588772e+001 4.119012e+000 0.000000e+000
         vertex 3.349365e+000 1.250000e+001 0.000000e+000
         vertex 1.671490e+001 5.599748e+000 0.000000e+000
      endloop
   endfacet
   facet normal 0.000000e+000 0.000000e+000 -1.000000e+000
      outer loop
         vertex 1.671490e+001 5.599748e+000 0.000000e+000
         vertex 3.349365e+000 1.250000e+001 0.000000e+000
         vertex 5.166166e+000 1.521904e+001 0.000000e+000
      endloop
   endfacet
   facet normal 0.000000e+000 0.000000e+000 -1.000000e+000
      outer loop
         vertex 1.671490e+001 5.599748e+000 0.000000e+000
         vertex 5.166166e+000 1.521904e+001 0.000000e+000
         vertex 1.778044e+001 6.919389e+000 0.000000e+000
      endloop
   endfacet
   facet normal 0.000000e+000 0.000000e+000 -1.000000e+000
      outer loop
         vertex 1.778044e+001 6.919389e+000 0.000000e+000
         vertex 5.166166e+000 1.521904e+001 0.000000e+000
         vertex 7.322330e+000 1.767767e+001 0.000000e+000
      endloop
   endfacet
   facet normal 0.000000e+000 0.000000e+000 -1.000000e+000
      outer loop
         vertex 1.778044e+001 6.919389e+000 0.000000e+000
         vertex 7.322330e+000 1.767767e+001 0.000000e+000
         vertex 1.905367e+001 8.039971e+000 0.000000e+000
      endloop
   endfacet
   facet normal 0.000000e+000 0.000000e+000 -1.000000e+000
      outer loop
         vertex 1.905367e+001 8.039971e+000 0.000000e+000
         vertex 7.322330e+000 1.767767e+001 0.000000e+000
         vertex 9.780964e+000 1.983383e+001 0.000000e+000
      endloop
   endfacet
   facet normal 0.000000e+000 0.000000e+000 -1.000000e+000
      outer loop
         vertex 1.905367e+001 8.039971e+000 0.000000e+000
         vertex 9.780964e+000 1.983383e+001 0.000000e+000
         vertex 2.049796e+001 8.929258e+000 0.000000e+000
      endloop
   endfacet
   facet normal 0.000000e+000 0.000000e+000 -1.000000e+000
      outer loop
         vertex 2.049796e+001 8.929258e+000 0.000000e+000
         vertex 9.780964e+000 1.983383e+001 0.000000e+000
         vertex 1.250000e+001 2.165063e+001 0.000000e+000
      endloop
   endfacet
   facet normal 0.000000e+000 0.000000e+000 -1.000000e+000
      outer loop
         vertex 2.049796e+001 8.929258e+000 0.000000e+000
         vertex 1.250000e+001 2.165063e+001 0.000000e+000
         vertex 1.543291e+001 2.309699e+001 0.000000e+000
      endloop
   endfacet
   facet normal 0.000000e+000 0.000000e+000 -1.000000e+000
      outer loop
         vertex 3.024307e+001 -8.515291e+000 0.000000e+000
         vertex 3.160675e+001 -7.506723e+000 0.000000e+000
         vertex 5.000000e+001 -7.000000e+001 0.000000e+000
      endloop
   endfacet
   facet normal 0.000000e+000 0.000000e+000 -1.000000e+000
      outer loop
         vertex 5.000000e+001 -7.000000e+001 0.000000e+000
         vertex 3.160675e+001 -7.506723e+000 0.000000e+000
         vertex 3.278036e+001 -6.282200e+000 0.000000e+000
      endloop
   endfacet
   facet normal 0.000000e+000 0.000000e+000 -1.000000e+000
      outer loop
         vertex 5.000000e+001 -7.000000e+001 0.000000e+000
         vertex 3.278036e+001 -6.282200e+000 0.000000e+000
         vertex 5.000000e+001 2.478176e-015 0.000000e+000
      endloop
   endfacet
   facet normal 0.000000e+000 0.000000e+000 -1.000000e+000
      outer loop
         vertex 5.000000e+001 2.478176e-015 0.000000e+000
         vertex 3.278036e+001 -6.282200e+000 0.000000e+000
         vertex 3.373014e+001 -4.876949e+000 0.000000e+000
      endloop
   endfacet
   facet normal 0.000000e+000 0.000000e+000 -1.000000e+000
      outer loop
         vertex 5.000000e+001 2.478176e-015 0.000000e+000
         vertex 3.373014e+001 -4.876949e+000 0.000000e+000
         vertex 3.442878e+001 -3.331398e+000 0.000000e+000
      endloop
   endfacet
   facet normal -9.990495e-001 4.359168e-002 0.000000e+000
      outer loop
         vertex 0.000000e+000 3.061617e-015 0.000000e+000
         vertex 0.000000e+000 3.061617e-015 1.000000e+001
         vertex 2.138785e-001 3.263155e+000 1.000000e+001
      endloop
   endfacet
   facet normal -9.961922e-001 8.718336e-002 0.000000e+000
      outer loop
         vertex 0.000000e+000 3.061617e-015 0.000000e+000
         vertex 2.138785e-001 3.263155e+000 1.000000e+001
         vertex 2.138785e-001 3.263155e+000 0.000000e+000
      endloop
   endfacet
   facet normal -9.848126e-001 1.736209e-001 0.000000e+000
      outer loop
         vertex 2.138785e-001 3.263155e+000 0.000000e+000
         vertex 2.138785e-001 3.263155e+000 1.000000e+001
         vertex 8.518543e-001 6.470476e+000 1.000000e+001
      endloop
   endfacet
   facet normal -9.762900e-001 2.164667e-001 0.000000e+000
      outer loop
         vertex 2.138785e-001 3.263155e+000 0.000000e+000
         vertex 8.518543e-001 6.470476e+000 1.000000e+001
         vertex 8.518543e-001 6.470476e+000 0.000000e+000
      endloop
   endfacet
   facet normal -9.537253e-001 3.006794e-001 0.000000e+000
      outer loop
         vertex 8.518543e-001 6.470476e+000 0.000000e+000
         vertex 8.518543e-001 6.470476e+000 1.000000e+001
         vertex 1.903012e+000 9.567085e+000 1.000000e+001
      endloop
   endfacet
   facet normal -9.396831e-001 3.420462e-001 0.000000e+000
      outer loop
         vertex 8.518543e-001 6.470476e+000 0.000000e+000
         vertex 1.903012e+000 9.567085e+000 1.000000e+001
         vertex 1.903012e+000 9.567085e+000 0.000000e+000
      endloop
   endfacet
   facet normal -9.063195e-001 4.225931e-001 0.000000e+000
      outer loop
         vertex 1.903012e+000 9.567085e+000 0.000000e+000
         vertex 1.903012e+000 9.567085e+000 1.000000e+001
         vertex 3.349365e+000 1.250000e+001 1.000000e+001
      endloop
   endfacet
   facet normal -8.869980e-001 4.617732e-001 0.000000e+000
      outer loop
         vertex 1.903012e+000 9.567085e+000 0.000000e+000
         vertex 3.349365e+000 1.250000e+001 1.000000e+001
         vertex 3.349365e+000 1.250000e+001 0.000000e+000
      endloop
   endfacet
   facet normal -8.434063e-001 5.372763e-001 0.000000e+000
      outer loop
         vertex 3.349365e+000 1.250000e+001 0.000000e+000
         vertex 3.349365e+000 1.250000e+001 1.000000e+001
         vertex 5.166166e+000 1.521904e+001 1.000000e+001
      endloop
   endfacet
   facet normal -8.191361e-001 5.735992e-001 0.000000e+000
      outer loop
         vertex 3.349365e+000 1.250000e+001 0.000000e+000
         vertex 5.166166e+000 1.521904e+001 1.000000e+001
         vertex 5.166166e+000 1.521904e+001 0.000000e+000
      endloop
   endfacet
   facet normal -7.660623e-001 6.427664e-001 0.000000e+000
      outer loop
         vertex 5.166166e+000 1.521904e+001 0.000000e+000
         vertex 5.166166e+000 1.521904e+001 1.000000e+001
         vertex 7.322330e+000 1.767767e+001 1.000000e+001
      endloop
   endfacet
   facet normal -7.372586e-001 6.756107e-001 0.000000e+000
      outer loop
         vertex 5.166166e+000 1.521904e+001 0.000000e+000
         vertex 7.322330e+000 1.767767e+001 1.000000e+001
         vertex 7.322330e+000 1.767767e+001 0.000000e+000
      endloop
   endfacet
   facet normal -6.756107e-001 7.372586e-001 0.000000e+000
      outer loop
         vertex 7.322330e+000 1.767767e+001 0.000000e+000
         vertex 7.322330e+000 1.767767e+001 1.000000e+001
         vertex 9.780964e+000 1.983383e+001 1.000000e+001
      endloop
   endfacet
   facet normal -6.427664e-001 7.660623e-001 0.000000e+000
      outer loop
         vertex 7.322330e+000 1.767767e+001 0.000000e+000
         vertex 9.780964e+000 1.983383e+001 1.000000e+001
         vertex 9.780964e+000 1.983383e+001 0.000000e+000
      endloop
   endfacet
   facet normal -5.735992e-001 8.191361e-001 0.000000e+000
      outer loop
         vertex 9.780964e+000 1.983383e+001 0.000000e+000
         vertex 9.780964e+000 1.983383e+001 1.000000e+001
         vertex 1.250000e+001 2.165063e+001 1.000000e+001
      endloop
   endfacet
   facet normal -5.372762e-001 8.434064e-001 0.000000e+000
      outer loop
         vertex 9.780964e+000 1.983383e+001 0.000000e+000
         vertex 1.250000e+001 2.165063e+001 1.000000e+001
         vertex 1.250000e+001 2.165063e+001 0.000000e+000
      endloop
   endfacet
   facet normal -4.617732e-001 8.869980e-001 0.000000e+000
      outer loop
         vertex 1.250000e+001 2.165063e+001 0.000000e+000
         vertex 1.250000e+001 2.165063e+001 1.000000e+001
         vertex 1.543291e+001 2.309699e+001 1.000000e+001
      endloop
   endfacet
   facet normal -4.225931e-001 9.063195e-001 0.000000e+000
      outer loop
         vertex 1.250000e+001 2.165063e+001 0.000000e+000
         vertex 1.543291e+001 2.309699e+001 1.000000e+001
         vertex 1.543291e+001 2.309699e+001 0.000000e+000
      endloop
   endfacet
   facet normal -3.420462e-001 9.396831e-001 0.000000e+000
      outer loop
         vertex 1.543291e+001 2.309699e+001 0.000000e+000
         vertex 1.543291e+001 2.309699e+001 1.000000e+001
         vertex 1.852952e+001 2.414815e+001 1.000000e+001
      endloop
   endfacet
   facet normal -3.006794e-001 9.537253e-001 0.000000e+000
      outer loop
         vertex 1.543291e+001 2.309699e+001 0.000000e+000
         vertex 1.852952e+001 2.414815e+001 1.000000e+001
         vertex 1.852952e+001 2.414815e+001 0.000000e+000
      endloop
   endfacet
   facet normal -2.164667e-001 9.762900e-001 0.000000e+000
      outer loop
         vertex 1.852952e+001 2.414815e+001 0.000000e+000
         vertex 1.852952e+001 2.414815e+001 1.000000e+001
         vertex 2.173685e+001 2.478612e+001 1.000000e+001
      endloop
   endfacet
   facet normal -1.736209e-001 9.848126e-001 0.000000e+000
      outer loop
         vertex 1.852952e+001 2.414815e+001 0.000000e+000
         vertex 2.173685e+001 2.478612e+001 1.000000e+001
         vertex 2.173685e+001 2.478612e+001 0.000000e+000
      endloop
   endfacet
   facet normal -8.718336e-002 9.961922e-001 0.000000e+000
      outer loop
         vertex 2.173685e+001 2.478612e+001 0.000000e+000
         vertex 2.173685e+001 2.478612e+001 1.000000e+001
         vertex 2.500000e+001 2.500000e+001 1.000000e+001
      endloop
   endfacet
   facet normal -4.359168e-002 9.990495e-001 0.000000e+000
      outer loop
         vertex 2.173685e+001 2.478612e+001 0.000000e+000
         vertex 2.500000e+001 2.500000e+001 1.000000e+001
         vertex 2.500000e+001 2.500000e+001 0.000000e+000
      endloop
   endfacet
   facet normal 4.359168e-002 9.990495e-001 0.000000e+000
      outer loop
         vertex 2.500000e+001 2.500000e+001 0.000000e+000
         vertex 2.500000e+001 2.500000e+001 1.000000e+001
         vertex 2.826315e+001 2.478612e+001 1.000000e+001
      endloop
   endfacet
   facet normal 8.718336e-002 9.961922e-001 0.000000e+000
      outer loop
         vertex 2.500000e+001 2.500000e+001 0.000000e+000
         vertex 2.826315e+001 2.478612e+001 1.000000e+001
         vertex 2.826315e+001 2.478612e+001 0.000000e+000
      endloop
   endfacet
   facet normal 1.736209e-001 9.848126e-001 0.000000e+000
      outer loop
         vertex 2.826315e+001 2.478612e+001 0.000000e+000
         vertex 2.826315e+001 2.478612e+001 1.000000e+001
         vertex 3.147048e+001 2.414815e+001 1.000000e+001
      endloop
   endfacet
   facet normal 2.164667e-001 9.762900e-001 0.000000e+000
      outer loop
         vertex 2.826315e+001 2.478612e+001 0.000000e+000
         vertex 3.147048e+001 2.414815e+001 1.000000e+001
         vertex 3.147048e+001 2.414815e+001 0.000000e+000
      endloop
   endfacet
   facet normal 3.006794e-001 9.537253e-001 0.000000e+000
      outer loop
         vertex 3.147048e+001 2.414815e+001 0.000000e+000
         vertex 3.147048e+001 2.414815e+001 1.000000e+001
         vertex 3.456709e+001 2.309699e+001 1.000000e+001
      endloop
   endfacet
   facet normal 3.420462e-001 9.396831e-001 0.000000e+000
      outer loop
         vertex 3.147048e+001 2.414815e+001 0.000000e+000
         vertex 3.456709e+001 2.309699e+001 1.000000e+001
         vertex 3.456709e+001 2.309699e+001 0.000000e+000
      endloop
   endfacet
   facet normal 4.225931e-001 9.063195e-001 0.000000e+000
      outer loop
         vertex 3.456709e+001 2.309699e+001 0.000000e+000
         vertex 3.456709e+001 2.309699e+001 1.000000e+001
         vertex 3.750000e+001 2.165063e+001 1.000000e+001
      endloop
   endfacet
   facet normal 4.617732e-001 8.869980e-001 0.000000e+000
      outer loop
         vertex 3.456709e+001 2.309699e+001 0.000000e+000
         vertex 3.750000e+001 2.165063e+001 1.000000e+001
         vertex 3.750000e+001 2.165063e+001 0.000000e+000
      endloop
   endfacet
   facet normal 5.372763e-001 8.434063e-001 0.000000e+000
      outer loop
         vertex 3.750000e+001 2.165063e+001 0.000000e+000
         vertex 3.750000e+001 2.165063e+001 1.000000e+001
         vertex 4.021904e+001 1.983383e+001 1.000000e+001
      endloop
   endfacet
   facet normal 5.735992e-001 8.191361e-001 0.000000e+000
      outer loop
         vertex 3.750000e+001 2.165063e+001 0.000000e+000
         vertex 4.021904e+001 1.983383e+001 1.000000e+001
         vertex 4.021904e+001 1.983383e+001 0.000000e+000
      endloop
   endfacet
   facet normal 6.427664e-001 7.660623e-001 0.000000e+000
      outer loop
         vertex 4.021904e+001 1.983383e+001 0.000000e+000
         vertex 4.021904e+001 1.983383e+001 1.000000e+001
         vertex 4.267767e+001 1.767767e+001 1.000000e+001
      endloop
   endfacet
   facet normal 6.756107e-001 7.372586e-001 0.000000e+000
      outer loop
         vertex 4.021904e+001 1.983383e+001 0.000000e+000
         vertex 4.267767e+001 1.767767e+001 1.000000e+001
         vertex 4.267767e+001 1.767767e+001 0.000000e+000
      endloop
   endfacet
   facet normal 7.372586e-001 6.756107e-001 0.000000e+000
      outer loop
         vertex 4.267767e+001 1.767767e+001 0.000000e+000
         vertex 4.267767e+001 1.767767e+001 1.000000e+001
         vertex 4.483384e+001 1.521904e+001 1.000000e+001
      endloop
   endfacet
   facet normal 7.660623e-001 6.427664e-001 0.000000e+000
      outer loop
         vertex 4.267767e+001 1.767767e+001 0.000000e+000
         vertex 4.483384e+001 1.521904e+001 1.000000e+001
         vertex 4.483384e+001 1.521904e+001 0.000000e+000
      endloop
   endfacet
   facet normal 8.191361e-001 5.735992e-001 0.000000e+000
      outer loop
         vertex 4.483384e+001 1.521904e+001 0.000000e+000
         vertex 4.483384e+001 1.521904e+001 1.000000e+001
         vertex 4.665064e+001 1.250000e+001 1.000000e+001
      endloop
   endfacet
   facet normal 8.434064e-001 5.372762e-001 0.000000e+000
      outer loop
         vertex 4.483384e+001 1.521904e+001 0.000000e+000
         vertex 4.665064e+001 1.250000e+001 1.000000e+001
         vertex 4.665064e+001 1.250000e+001 0.000000e+000
      endloop
   endfacet
   facet normal 8.869980e-001 4.617732e-001 0.000000e+000
      outer loop
         vertex 4.665064e+001 1.250000e+001 0.000000e+000
         vertex 4.665064e+001 1.250000e+001 1.000000e+001
         vertex 4.809699e+001 9.567085e+000 1.000000e+001
      endloop
   endfacet
   facet normal 9.063195e-001 4.225931e-001 0.000000e+000
      outer loop
         vertex 4.665064e+001 1.250000e+001 0.000000e+000
         vertex 4.809699e+001 9.567085e+000 1.000000e+001
         vertex 4.809699e+001 9.567085e+000 0.000000e+000
      endloop
   endfacet
   facet normal 9.396831e-001 3.420462e-001 0.000000e+000
      outer loop
         vertex 4.809699e+001 9.567085e+000 0.000000e+000
         vertex 4.809699e+001 9.567085e+000 1.000000e+001
         vertex 4.914815e+001 6.470476e+000 1.000000e+001
      endloop
   endfacet
   facet normal 9.537253e-001 3.006794e-001 0.000000e+000
      outer loop
         vertex 4.809699e+001 9.567085e+000 0.000000e+000
         vertex 4.914815e+001 6.470476e+000 1.000000e+001
         vertex 4.914815e+001 6.470476e+000 0.000000e+000
      endloop
   endfacet
   facet normal 9.762900e-001 2.164667e-001 0.000000e+000
      outer loop
         vertex 4.914815e+001 6.470476e+000 0.000000e+000
         vertex 4.914815e+001 6.470476e+000 1.000000e+001
         vertex 4.978612e+001 3.263155e+000 1.000000e+001
      endloop
   endfacet
   facet normal 9.848126e-001 1.736209e-001 0.000000e+000
      outer loop
         vertex 4.914815e+001 6.470476e+000 0.000000e+000
         vertex 4.978612e+001 3.263155e+000 1.000000e+001
         vertex 4.978612e+001 3.263155e+000 0.000000e+000
      endloop
   endfacet
   facet normal 9.961922e-001 8.718336e-002 0.000000e+000
      outer loop
         vertex 4.978612e+001 3.263155e+000 0.000000e+000
         vertex 4.978612e+001 3.263155e+000 1.000000e+001
         vertex 5.000000e+001 0.000000e+000 1.000000e+001
      endloop
   endfacet
   facet normal 9.990495e-001 4.359168e-002 0.000000e+000
      outer loop
         vertex 4.978612e+001 3.263155e+000 0.000000e+000
         vertex 5.000000e+001 0.000000e+000 1.000000e+001
         vertex 5.000000e+001 0.000000e+000 0.000000e+000
      endloop
   endfacet
   facet normal 9.984018e-001 5.651454e-002 0.000000e+000
      outer loop
         vertex 3.485616e+001 1.690008e+000 -3.000000e+001
         vertex 3.500000e+001 0.000000e+000 0.000000e+000
         vertex 3.500000e+001 0.000000e+000 -3.000000e+001
      endloop
   endfacet
   facet normal 9.984018e-001 -5.651454e-002 0.000000e+000
      outer loop
         vertex 3.500000e+001 0.000000e+000 -3.000000e+001
         vertex 3.500000e+001 0.000000e+000 0.000000e+000
         vertex 3.485616e+001 -1.690008e+000 0.000000e+000
      endloop
   endfacet
   facet normal 9.935917e-001 -1.130291e-001 0.000000e+000
      outer loop
         vertex 3.500000e+001 0.000000e+000 -3.000000e+001
         vertex 3.485616e+001 -1.690008e+000 0.000000e+000
         vertex 3.485616e+001 -1.690008e+000 -3.000000e+001
      endloop
   endfacet
   facet normal 9.744897e-001 -2.244324e-001 0.000000e+000
      outer loop
         vertex 3.485616e+001 -1.690008e+000 -3.000000e+001
         vertex 3.485616e+001 -1.690008e+000 0.000000e+000
         vertex 3.442878e+001 -3.331398e+000 0.000000e+000
      endloop
   endfacet
   facet normal 9.601977e-001 -2.793211e-001 0.000000e+000
      outer loop
         vertex 3.485616e+001 -1.690008e+000 -3.000000e+001
         vertex 3.442878e+001 -3.331398e+000 0.000000e+000
         vertex 3.442878e+001 -3.331398e+000 -3.000000e+001
      endloop
   endfacet
   facet normal 9.225433e-001 -3.858936e-001 0.000000e+000
      outer loop
         vertex 3.442878e+001 -3.331398e+000 -3.000000e+001
         vertex 3.442878e+001 -3.331398e+000 0.000000e+000
         vertex 3.373014e+001 -4.876949e+000 0.000000e+000
      endloop
   endfacet
   facet normal 8.991807e-001 -4.375775e-001 0.000000e+000
      outer loop
         vertex 3.442878e+001 -3.331398e+000 -3.000000e+001
         vertex 3.373014e+001 -4.876949e+000 0.000000e+000
         vertex 3.373014e+001 -4.876949e+000 -3.000000e+001
      endloop
   endfacet
   facet normal 8.440570e-001 -5.362535e-001 0.000000e+000
      outer loop
         vertex 3.373014e+001 -4.876949e+000 -3.000000e+001
         vertex 3.373014e+001 -4.876949e+000 0.000000e+000
         vertex 3.278036e+001 -6.282200e+000 0.000000e+000
      endloop
   endfacet
   facet normal 8.122959e-001 -5.832456e-001 0.000000e+000
      outer loop
         vertex 3.373014e+001 -4.876949e+000 -3.000000e+001
         vertex 3.278036e+001 -6.282200e+000 0.000000e+000
         vertex 3.278036e+001 -6.282200e+000 -3.000000e+001
      endloop
   endfacet
   facet normal 7.412888e-001 -6.711863e-001 0.000000e+000
      outer loop
         vertex 3.278036e+001 -6.282200e+000 -3.000000e+001
         vertex 3.278036e+001 -6.282200e+000 0.000000e+000
         vertex 3.160675e+001 -7.506723e+000 0.000000e+000
      endloop
   endfacet
   facet normal 7.020428e-001 -7.121348e-001 0.000000e+000
      outer loop
         vertex 3.278036e+001 -6.282200e+000 -3.000000e+001
         vertex 3.160675e+001 -7.506723e+000 0.000000e+000
         vertex 3.160675e+001 -7.506723e+000 -3.000000e+001
      endloop
   endfacet
   facet normal 6.171949e-001 -7.868103e-001 0.000000e+000
      outer loop
         vertex 3.160675e+001 -7.506723e+000 -3.000000e+001
         vertex 3.160675e+001 -7.506723e+000 0.000000e+000
         vertex 3.024307e+001 -8.515291e+000 0.000000e+000
      endloop
   endfacet
   facet normal 5.715931e-001 -8.205372e-001 0.000000e+000
      outer loop
         vertex 3.160675e+001 -7.506723e+000 -3.000000e+001
         vertex 3.024307e+001 -8.515291e+000 0.000000e+000
         vertex 3.024307e+001 -8.515291e+000 -3.000000e+001
      endloop
   endfacet
   facet normal 4.753455e-001 -8.797992e-001 0.000000e+000
      outer loop
         vertex 3.024307e+001 -8.515291e+000 -3.000000e+001
         vertex 3.024307e+001 -8.515291e+000 0.000000e+000
         vertex 2.872857e+001 -9.278891e+000 0.000000e+000
      endloop
   endfacet
   facet normal 4.246998e-001 -9.053342e-001 0.000000e+000
      outer loop
         vertex 3.024307e+001 -8.515291e+000 -3.000000e+001
         vertex 2.872857e+001 -9.278891e+000 0.000000e+000
         vertex 2.872857e+001 -9.278891e+000 -3.000000e+001
      endloop
   endfacet
   facet normal 3.198213e-001 -9.474779e-001 0.000000e+000
      outer loop
         vertex 2.872857e+001 -9.278891e+000 -3.000000e+001
         vertex 2.872857e+001 -9.278891e+000 0.000000e+000
         vertex 2.710679e+001 -9.775552e+000 0.000000e+000
      endloop
   endfacet
   facet normal 2.655886e-001 -9.640865e-001 0.000000e+000
      outer loop
         vertex 2.872857e+001 -9.278891e+000 -3.000000e+001
         vertex 2.710679e+001 -9.775552e+000 0.000000e+000
         vertex 2.710679e+001 -9.775552e+000 -3.000000e+001
      endloop
   endfacet
   facet normal 1.550965e-001 -9.878993e-001 0.000000e+000
      outer loop
         vertex 2.710679e+001 -9.775552e+000 -3.000000e+001
         vertex 2.710679e+001 -9.775552e+000 0.000000e+000
         vertex 2.542441e+001 -9.990990e+000 0.000000e+000
      endloop
   endfacet
   facet normal 9.883699e-002 -9.951036e-001 0.000000e+000
      outer loop
         vertex 2.710679e+001 -9.775552e+000 -3.000000e+001
         vertex 2.542441e+001 -9.990990e+000 0.000000e+000
         vertex 2.542441e+001 -9.990990e+000 -3.000000e+001
      endloop
   endfacet
   facet normal -1.409025e-002 -9.999007e-001 0.000000e+000
      outer loop
         vertex 2.542441e+001 -9.990990e+000 -3.000000e+001
         vertex 2.542441e+001 -9.990990e+000 0.000000e+000
         vertex 2.372982e+001 -9.919004e+000 0.000000e+000
      endloop
   endfacet
   facet normal -7.075802e-002 -9.974935e-001 0.000000e+000
      outer loop
         vertex 2.542441e+001 -9.990990e+000 -3.000000e+001
         vertex 2.372982e+001 -9.919004e+000 0.000000e+000
         vertex 2.372982e+001 -9.919004e+000 -3.000000e+001
      endloop
   endfacet
   facet normal -1.828716e-001 -9.831368e-001 0.000000e+000
      outer loop
         vertex 2.372982e+001 -9.919004e+000 -3.000000e+001
         vertex 2.372982e+001 -9.919004e+000 0.000000e+000
         vertex 2.207177e+001 -9.561667e+000 0.000000e+000
      endloop
   endfacet
   facet normal -2.383175e-001 -9.711873e-001 0.000000e+000
      outer loop
         vertex 2.372982e+001 -9.919004e+000 -3.000000e+001
         vertex 2.207177e+001 -9.561667e+000 0.000000e+000
         vertex 2.207177e+001 -9.561667e+000 -3.000000e+001
      endloop
   endfacet
   facet normal -3.463921e-001 -9.380898e-001 0.000000e+000
      outer loop
         vertex 2.207177e+001 -9.561667e+000 -3.000000e+001
         vertex 2.207177e+001 -9.561667e+000 0.000000e+000
         vertex 2.049796e+001 -8.929258e+000 0.000000e+000
      endloop
   endfacet
   facet normal -3.990209e-001 -9.169418e-001 0.000000e+000
      outer loop
         vertex 2.207177e+001 -9.561667e+000 -3.000000e+001
         vertex 2.049796e+001 -8.929258e+000 0.000000e+000
         vertex 2.049796e+001 -8.929258e+000 -3.000000e+001
      endloop
   endfacet
   facet normal -4.999475e-001 -8.660557e-001 0.000000e+000
      outer loop
         vertex 2.049796e+001 -8.929258e+000 -3.000000e+001
         vertex 2.049796e+001 -8.929258e+000 0.000000e+000
         vertex 1.905367e+001 -8.039971e+000 0.000000e+000
      endloop
   endfacet
   facet normal -5.482453e-001 -8.363176e-001 0.000000e+000
      outer loop
         vertex 2.049796e+001 -8.929258e+000 -3.000000e+001
         vertex 1.905367e+001 -8.039971e+000 0.000000e+000
         vertex 1.905367e+001 -8.039971e+000 -3.000000e+001
      endloop
   endfacet
   facet normal -6.391203e-001 -7.691067e-001 0.000000e+000
      outer loop
         vertex 1.905367e+001 -8.039971e+000 -3.000000e+001
         vertex 1.905367e+001 -8.039971e+000 0.000000e+000
         vertex 1.778044e+001 -6.919389e+000 0.000000e+000
      endloop
   endfacet
   facet normal -6.816977e-001 -7.316340e-001 0.000000e+000
      outer loop
         vertex 1.905367e+001 -8.039971e+000 -3.000000e+001
         vertex 1.778044e+001 -6.919389e+000 0.000000e+000
         vertex 1.778044e+001 -6.919389e+000 -3.000000e+001
      endloop
   endfacet
   facet normal -7.599069e-001 -6.500320e-001 0.000000e+000
      outer loop
         vertex 1.778044e+001 -6.919389e+000 -3.000000e+001
         vertex 1.778044e+001 -6.919389e+000 0.000000e+000
         vertex 1.671490e+001 -5.599748e+000 0.000000e+000
      endloop
   endfacet
   facet normal -7.955388e-001 -6.059027e-001 0.000000e+000
      outer loop
         vertex 1.778044e+001 -6.919389e+000 -3.000000e+001
         vertex 1.671490e+001 -5.599748e+000 0.000000e+000
         vertex 1.671490e+001 -5.599748e+000 -3.000000e+001
      endloop
   endfacet
   facet normal -8.588322e-001 -5.122570e-001 0.000000e+000
      outer loop
         vertex 1.671490e+001 -5.599748e+000 -3.000000e+001
         vertex 1.671490e+001 -5.599748e+000 0.000000e+000
         vertex 1.588772e+001 -4.119012e+000 0.000000e+000
      endloop
   endfacet
   facet normal -8.864937e-001 -4.627406e-001 0.000000e+000
      outer loop
         vertex 1.671490e+001 -5.599748e+000 -3.000000e+001
         vertex 1.588772e+001 -4.119012e+000 0.000000e+000
         vertex 1.588772e+001 -4.119012e+000 -3.000000e+001
      endloop
   endfacet
   facet normal -9.330506e-001 -3.597453e-001 0.000000e+000
      outer loop
         vertex 1.588772e+001 -4.119012e+000 -3.000000e+001
         vertex 1.588772e+001 -4.119012e+000 0.000000e+000
         vertex 1.532267e+001 -2.519781e+000 0.000000e+000
      endloop
   endfacet
   facet normal -9.519458e-001 -3.062663e-001 0.000000e+000
      outer loop
         vertex 1.588772e+001 -4.119012e+000 -3.000000e+001
         vertex 1.532267e+001 -2.519781e+000 0.000000e+000
         vertex 1.532267e+001 -2.519781e+000 -3.000000e+001
      endloop
   endfacet
   facet normal -9.804267e-001 -1.968844e-001 0.000000e+000
      outer loop
         vertex 1.532267e+001 -2.519781e+000 -3.000000e+001
         vertex 1.532267e+001 -2.519781e+000 0.000000e+000
         vertex 1.503603e+001 -8.480592e-001 0.000000e+000
      endloop
   endfacet
   facet normal -9.900123e-001 -1.409813e-001 0.000000e+000
      outer loop
         vertex 1.532267e+001 -2.519781e+000 -3.000000e+001
         vertex 1.503603e+001 -8.480592e-001 0.000000e+000
         vertex 1.503603e+001 -8.480592e-001 -3.000000e+001
      endloop
   endfacet
   facet normal -9.995977e-001 -2.835944e-002 0.000000e+000
      outer loop
         vertex 1.503603e+001 -8.480592e-001 -3.000000e+001
         vertex 1.503603e+001 -8.480592e-001 0.000000e+000
         vertex 1.503603e+001 8.480592e-001 0.000000e+000
      endloop
   endfacet
   facet normal -9.995977e-001 2.835944e-002 0.000000e+000
      outer loop
         vertex 1.503603e+001 -8.480592e-001 -3.000000e+001
         vertex 1.503603e+001 8.480592e-001 0.000000e+000
         vertex 1.503603e+001 8.480592e-001 -3.000000e+001
      endloop
   endfacet
   facet normal -9.900123e-001 1.409813e-001 0.000000e+000
      outer loop
         vertex 1.503603e+001 8.480592e-001 -3.000000e+001
         vertex 1.503603e+001 8.480592e-001 0.000000e+000
         vertex 1.532267e+001 2.519781e+000 0.000000e+000
      endloop
   endfacet
   facet normal -9.804267e-001 1.968844e-001 0.000000e+000
      outer loop
         vertex 1.503603e+001 8.480592e-001 -3.000000e+001
         vertex 1.532267e+001 2.519781e+000 0.000000e+000
         vertex 1.532267e+001 2.519781e+000 -3.000000e+001
      endloop
   endfacet
   facet normal -9.519458e-001 3.062663e-001 0.000000e+000
      outer loop
         vertex 1.532267e+001 2.519781e+000 -3.000000e+001
         vertex 1.532267e+001 2.519781e+000 0.000000e+000
         vertex 1.588772e+001 4.119012e+000 0.000000e+000
      endloop
   endfacet
   facet normal -9.330506e-001 3.597453e-001 0.000000e+000
      outer loop
         vertex 1.532267e+001 2.519781e+000 -3.000000e+001
         vertex 1.588772e+001 4.119012e+000 0.000000e+000
         vertex 1.588772e+001 4.119012e+000 -3.000000e+001
      endloop
   endfacet
   facet normal -8.864937e-001 4.627406e-001 0.000000e+000
      outer loop
         vertex 1.588772e+001 4.119012e+000 -3.000000e+001
         vertex 1.588772e+001 4.119012e+000 0.000000e+000
         vertex 1.671490e+001 5.599748e+000 0.000000e+000
      endloop
   endfacet
   facet normal -8.588322e-001 5.122570e-001 0.000000e+000
      outer loop
         vertex 1.588772e+001 4.119012e+000 -3.000000e+001
         vertex 1.671490e+001 5.599748e+000 0.000000e+000
         vertex 1.671490e+001 5.599748e+000 -3.000000e+001
      endloop
   endfacet
   facet normal -7.955388e-001 6.059027e-001 0.000000e+000
      outer loop
         vertex 1.671490e+001 5.599748e+000 -3.000000e+001
         vertex 1.671490e+001 5.599748e+000 0.000000e+000
         vertex 1.778044e+001 6.919389e+000 0.000000e+000
      endloop
   endfacet
   facet normal -7.599069e-001 6.500320e-001 0.000000e+000
      outer loop
         vertex 1.671490e+001 5.599748e+000 -3.000000e+001
         vertex 1.778044e+001 6.919389e+000 0.000000e+000
         vertex 1.778044e+001 6.919389e+000 -3.000000e+001
      endloop
   endfacet
   facet normal -6.816977e-001 7.316340e-001 0.000000e+000
      outer loop
         vertex 1.778044e+001 6.919389e+000 -3.000000e+001
         vertex 1.778044e+001 6.919389e+000 0.000000e+000
         vertex 1.905367e+001 8.039971e+000 0.000000e+000
      endloop
   endfacet
   facet normal -6.391203e-001 7.691067e-001 0.000000e+000
      outer loop
         vertex 1.778044e+001 6.919389e+000 -3.000000e+001
         vertex 1.905367e+001 8.039971e+000 0.000000e+000
         vertex 1.905367e+001 8.039971e+000 -3.000000e+001
      endloop
   endfacet
   facet normal -5.482453e-001 8.363176e-001 0.000000e+000
      outer loop
         vertex 1.905367e+001 8.039971e+000 -3.000000e+001
         vertex 1.905367e+001 8.039971e+000 0.000000e+000
         vertex 2.049796e+001 8.929258e+000 0.000000e+000
      endloop
   endfacet
   facet normal -4.999475e-001 8.660557e-001 0.000000e+000
      outer loop
         vertex 1.905367e+001 8.039971e+000 -3.000000e+001
         vertex 2.049796e+001 8.929258e+000 0.000000e+000
         vertex 2.049796e+001 8.929258e+000 -3.000000e+001
      endloop
   endfacet
   facet normal -3.990209e-001 9.169418e-001 0.000000e+000
      outer loop
         vertex 2.049796e+001 8.929258e+000 -3.000000e+001
         vertex 2.049796e+001 8.929258e+000 0.000000e+000
         vertex 2.207177e+001 9.561667e+000 0.000000e+000
      endloop
   endfacet
   facet normal -3.463921e-001 9.380898e-001 0.000000e+000
      outer loop
         vertex 2.049796e+001 8.929258e+000 -3.000000e+001
         vertex 2.207177e+001 9.561667e+000 0.000000e+000
         vertex 2.207177e+001 9.561667e+000 -3.000000e+001
      endloop
   endfacet
   facet normal -2.383175e-001 9.711873e-001 0.000000e+000
      outer loop
         vertex 2.207177e+001 9.561667e+000 -3.000000e+001
         vertex 2.207177e+001 9.561667e+000 0.000000e+000
         vertex 2.372982e+001 9.919004e+000 0.000000e+000
      endloop
   endfacet
   facet normal -1.828716e-001 9.831368e-001 0.000000e+000
      outer loop
         vertex 2.207177e+001 9.561667e+000 -3.000000e+001
         vertex 2.372982e+001 9.919004e+000 0.000000e+000
         vertex 2.372982e+001 9.919004e+000 -3.000000e+001
      endloop
   endfacet
   facet normal -7.075802e-002 9.974935e-001 0.000000e+000
      outer loop
         vertex 2.372982e+001 9.919004e+000 -3.000000e+001
         vertex 2.372982e+001 9.919004e+000 0.000000e+000
         vertex 2.542441e+001 9.990990e+000 0.000000e+000
      endloop
   endfacet
   facet normal -1.409025e-002 9.999007e-001 0.000000e+000
      outer loop
         vertex 2.372982e+001 9.919004e+000 -3.000000e+001
         vertex 2.542441e+001 9.990990e+000 0.000000e+000
         vertex 2.542441e+001 9.990990e+000 -3.000000e+001
      endloop
   endfacet
   facet normal 9.883699e-002 9.951036e-001 0.000000e+000
      outer loop
         vertex 2.542441e+001 9.990990e+000 -3.000000e+001
         vertex 2.542441e+001 9.990990e+000 0.000000e+000
         vertex 2.710679e+001 9.775552e+000 0.000000e+000
      endloop
   endfacet
   facet normal 1.550965e-001 9.878993e-001 0.000000e+000
      outer loop
         vertex 2.542441e+001 9.990990e+000 -3.000000e+001
         vertex 2.710679e+001 9.775552e+000 0.000000e+000
         vertex 2.710679e+001 9.775552e+000 -3.000000e+001
      endloop
   endfacet
   facet normal 2.655886e-001 9.640865e-001 0.000000e+000
      outer loop
         vertex 2.710679e+001 9.775552e+000 -3.000000e+001
         vertex 2.710679e+001 9.775552e+000 0.000000e+000
         vertex 2.872857e+001 9.278891e+000 0.000000e+000
      endloop
   endfacet
   facet normal 3.198213e-001 9.474779e-001 0.000000e+000
      outer loop
         vertex 2.710679e+001 9.775552e+000 -3.000000e+001
         vertex 2.872857e+001 9.278891e+000 0.000000e+000
         vertex 2.872857e+001 9.278891e+000 -3.000000e+001
      endloop
   endfacet
   facet normal 4.246998e-001 9.053342e-001 0.000000e+000
      outer loop
         vertex 2.872857e+001 9.278891e+000 -3.000000e+001
         vertex 2.872857e+001 9.278891e+000 0.000000e+000
         vertex 3.024307e+001 8.515291e+000 0.000000e+000
      endloop
   endfacet
   facet normal 4.753455e-001 8.797992e-001 0.000000e+000
      outer loop
         vertex 2.872857e+001 9.278891e+000 -3.000000e+001
         vertex 3.024307e+001 8.515291e+000 0.000000e+000
         vertex 3.024307e+001 8.515291e+000 -3.000000e+001
      endloop
   endfacet
   facet normal 5.715931e-001 8.205372e-001 0.000000e+000
      outer loop
         vertex 3.024307e+001 8.515291e+000 -3.000000e+001
         vertex 3.024307e+001 8.515291e+000 0.000000e+000
         vertex 3.160675e+001 7.506723e+000 0.000000e+000
      endloop
   endfacet
   facet normal 6.171949e-001 7.868103e-001 0.000000e+000
      outer loop
         vertex 3.024307e+001 8.515291e+000 -3.000000e+001
         vertex 3.160675e+001 7.506723e+000 0.000000e+000
         vertex 3.160675e+001 7.506723e+000 -3.000000e+001
      endloop
   endfacet
   facet normal 7.020428e-001 7.121348e-001 0.000000e+000
      outer loop
         vertex 3.160675e+001 7.506723e+000 -3.000000e+001
         vertex 3.160675e+001 7.506723e+000 0.000000e+000
         vertex 3.278036e+001 6.282200e+000 0.000000e+000
      endloop
   endfacet
   facet normal 7.412888e-001 6.711863e-001 0.000000e+000
      outer loop
         vertex 3.160675e+001 7.506723e+000 -3.000000e+001
         vertex 3.278036e+001 6.282200e+000 0.000000e+000
         vertex 3.278036e+001 6.282200e+000 -3.000000e+001
      endloop
   endfacet
   facet normal 8.122959e-001 5.832456e-001 0.000000e+000
      outer loop
         vertex 3.278036e+001 6.282200e+000 -3.000000e+001
         vertex 3.278036e+001 6.282200e+000 0.000000e+000
         vertex 3.373014e+001 4.876949e+000 0.000000e+000
      endloop
   endfacet
   facet normal 8.440570e-001 5.362535e-001 0.000000e+000
      outer loop
         vertex 3.278036e+001 6.282200e+000 -3.000000e+001
         vertex 3.373014e+001 4.876949e+000 0.000000e+000
         vertex 3.373014e+001 4.876949e+000 -3.000000e+001
      endloop
   endfacet
   facet normal 8.991807e-001 4.375775e-001 0.000000e+000
      outer loop
         vertex 3.373014e+001 4.876949e+000 -3.000000e+001
         vertex 3.373014e+001 4.876949e+000 0.000000e+000
         vertex 3.442878e+001 3.331398e+000 0.000000e+000
      endloop
   endfacet
   facet normal 9.225433e-001 3.858936e-001 0.000000e+000
      outer loop
         vertex 3.373014e+001 4.876949e+000 -3.000000e+001
         vertex 3.442878e+001 3.331398e+000 0.000000e+000
         vertex 3.442878e+001 3.331398e+000 -3.000000e+001
      endloop
   endfacet
   facet normal 9.601977e-001 2.793211e-001 0.000000e+000
      outer loop
         vertex 3.442878e+001 3.331398e+000 -3.000000e+001
         vertex 3.442878e+001 3.331398e+000 0.000000e+000
         vertex 3.485616e+001 1.690008e+000 0.000000e+000
      endloop
   endfacet
   facet normal 9.744897e-001 2.244324e-001 0.000000e+000
      outer loop
         vertex 3.442878e+001 3.331398e+000 -3.000000e+001
         vertex 3.485616e+001 1.690008e+000 0.000000e+000
         vertex 3.485616e+001 1.690008e+000 -3.000000e+001
      endloop
   endfacet
   facet normal 9.935917e-001 1.130291e-001 0.000000e+000
      outer loop
         vertex 3.485616e+001 1.690008e+000 -3.000000e+001
         vertex 3.485616e+001 1.690008e+000 0.000000e+000
         vertex 3.500000e+001 0.000000e+000 0.000000e+000
      endloop
   endfacet
   facet normal 0.000000e+000 0.000000e+000 -1.000000e+000
      outer loop
         vertex 1.905367e+001 -8.039971e+000 -3.000000e+001
         vertex 1.778044e+001 -6.919389e+000 -3.000000e+001
         vertex 1.671490e+001 -5.599748e+000 -3.000000e+001
      endloop
   endfacet
   facet normal 0.000000e+000 0.000000e+000 -1.000000e+000
      outer loop
         vertex 3.485616e+001 -1.690008e+000 -3.000000e+001
         vertex 1.671490e+001 -5.599748e+000 -3.000000e+001
         vertex 3.500000e+001 0.000000e+000 -3.000000e+001
      endloop
   endfacet
   facet normal 0.000000e+000 0.000000e+000 -1.000000e+000
      outer loop
         vertex 3.500000e+001 0.000000e+000 -3.000000e+001
         vertex 1.671490e+001 -5.599748e+000 -3.000000e+001
         vertex 3.485616e+001 1.690008e+000 -3.000000e+001
      endloop
   endfacet
   facet normal 0.000000e+000 0.000000e+000 -1.000000e+000
      outer loop
         vertex 1.588772e+001 -4.119012e+000 -3.000000e+001
         vertex 1.532267e+001 -2.519781e+000 -3.000000e+001
         vertex 2.207177e+001 9.561667e+000 -3.000000e+001
      endloop
   endfacet
   facet normal 0.000000e+000 0.000000e+000 -1.000000e+000
      outer loop
         vertex 2.207177e+001 9.561667e+000 -3.000000e+001
         vertex 1.532267e+001 -2.519781e+000 -3.000000e+001
         vertex 1.503603e+001 -8.480592e-001 -3.000000e+001
      endloop
   endfacet
   facet normal 0.000000e+000 0.000000e+000 -1.000000e+000
      outer loop
         vertex 2.207177e+001 9.561667e+000 -3.000000e+001
         vertex 1.503603e+001 -8.480592e-001 -3.000000e+001
         vertex 1.503603e+001 8.480592e-001 -3.000000e+001
      endloop
   endfacet
   facet normal 0.000000e+000 0.000000e+000 -1.000000e+000
      outer loop
         vertex 3.485616e+001 -1.690008e+000 -3.000000e+001
         vertex 3.442878e+001 -3.331398e+000 -3.000000e+001
         vertex 1.671490e+001 -5.599748e+000 -3.000000e+001
      endloop
   endfacet
   facet normal 0.000000e+000 0.000000e+000 -1.000000e+000
      outer loop
         vertex 1.671490e+001 -5.599748e+000 -3.000000e+001
         vertex 3.442878e+001 -3.331398e+000 -3.000000e+001
         vertex 3.373014e+001 -4.876949e+000 -3.000000e+001
      endloop
   endfacet
   facet normal 0.000000e+000 0.000000e+000 -1.000000e+000
      outer loop
         vertex 1.671490e+001 -5.599748e+000 -3.000000e+001
         vertex 3.373014e+001 -4.876949e+000 -3.000000e+001
         vertex 3.278036e+001 -6.282200e+000 -3.000000e+001
      endloop
   endfacet
   facet normal 0.000000e+000 0.000000e+000 -1.000000e+000
      outer loop
         vertex 2.207177e+001 9.561667e+000 -3.000000e+001
         vertex 2.372982e+001 9.919004e+000 -3.000000e+001
         vertex 1.588772e+001 -4.119012e+000 -3.000000e+001
      endloop
   endfacet
   facet normal 0.000000e+000 0.000000e+000 -1.000000e+000
      outer loop
         vertex 1.588772e+001 -4.119012e+000 -3.000000e+001
         vertex 2.372982e+001 9.919004e+000 -3.000000e+001
         vertex 2.542441e+001 9.990990e+000 -3.000000e+001
      endloop
   endfacet
   facet normal 0.000000e+000 0.000000e+000 -1.000000e+000
      outer loop
         vertex 1.588772e+001 -4.119012e+000 -3.000000e+001
         vertex 2.542441e+001 9.990990e+000 -3.000000e+001
         vertex 2.710679e+001 9.775552e+000 -3.000000e+001
      endloop
   endfacet
   facet normal 0.000000e+000 0.000000e+000 -1.000000e+000
      outer loop
         vertex 2.710679e+001 9.775552e+000 -3.000000e+001
         vertex 2.872857e+001 9.278891e+000 -3.000000e+001
         vertex 1.588772e+001 -4.119012e+000 -3.000000e+001
      endloop
   endfacet
   facet normal 0.000000e+000 0.000000e+000 -1.000000e+000
      outer loop
         vertex 1.588772e+001 -4.119012e+000 -3.000000e+001
         vertex 2.872857e+001 9.278891e+000 -3.000000e+001
         vertex 3.024307e+001 8.515291e+000 -3.000000e+001
      endloop
   endfacet
   facet normal 0.000000e+000 0.000000e+000 -1.000000e+000
      outer loop
         vertex 1.588772e+001 -4.119012e+000 -3.000000e+001
         vertex 3.024307e+001 8.515291e+000 -3.000000e+001
         vertex 3.160675e+001 7.506723e+000 -3.000000e+001
      endloop
   endfacet
   facet normal 0.000000e+000 0.000000e+000 -1.000000e+000
      outer loop
         vertex 3.160675e+001 7.506723e+000 -3.000000e+001
         vertex 3.278036e+001 6.282200e+000 -3.000000e+001
         vertex 1.588772e+001 -4.119012e+000 -3.000000e+001
      endloop
   endfacet
   facet normal 0.000000e+000 0.000000e+000 -1.000000e+000
      outer loop
         vertex 1.588772e+001 -4.119012e+000 -3.000000e+001
         vertex 3.278036e+001 6.282200e+000 -3.000000e+001
         vertex 3.373014e+001 4.876949e+000 -3.000000e+001
      endloop
   endfacet
   facet normal 0.000000e+000 0.000000e+000 -1.000000e+000
      outer loop
         vertex 1.588772e+001 -4.119012e+000 -3.000000e+001
         vertex 3.373014e+001 4.876949e+000 -3.000000e+001
         vertex 1.671490e+001 -5.599748e+000 -3.000000e+001
      endloop
   endfacet
   facet normal 0.000000e+000 0.000000e+000 -1.000000e+000
      outer loop
         vertex 1.671490e+001 -5.599748e+000 -3.000000e+001
         vertex 3.373014e+001 4.876949e+000 -3.000000e+001
         vertex 3.442878e+001 3.331398e+000 -3.000000e+001
      endloop
   endfacet
   facet normal 0.000000e+000 0.000000e+000 -1.000000e+000
      outer loop
         vertex 1.671490e+001 -5.599748e+000 -3.000000e+001
         vertex 3.442878e+001 3.331398e+000 -3.000000e+001
         vertex 3.485616e+001 1.690008e+000 -3.000000e+001
      endloop
   endfacet
   facet normal 0.000000e+000 0.000000e+000 -1.000000e+000
      outer loop
         vertex 2.372982e+001 -9.919004e+000 -3.000000e+001
         vertex 2.207177e+001 -9.561667e+000 -3.000000e+001
         vertex 1.671490e+001 -5.599748e+000 -3.000000e+001
      endloop
   endfacet
   facet normal 0.000000e+000 0.000000e+000 -1.000000e+000
      outer loop
         vertex 1.671490e+001 -5.599748e+000 -3.000000e+001
         vertex 2.207177e+001 -9.561667e+000 -3.000000e+001
         vertex 2.049796e+001 -8.929258e+000 -3.000000e+001
      endloop
   endfacet
   facet normal 0.000000e+000 0.000000e+000 -1.000000e+000
      outer loop
         vertex 1.671490e+001 -5.599748e+000 -3.000000e+001
         vertex 2.049796e+001 -8.929258e+000 -3.000000e+001
         vertex 1.905367e+001 -8.039971e+000 -3.000000e+001
      endloop
   endfacet
   facet normal 0.000000e+000 0.000000e+000 -1.000000e+000
      outer loop
         vertex 1.778044e+001 6.919389e+000 -3.000000e+001
         vertex 1.905367e+001 8.039971e+000 -3.000000e+001
         vertex 1.671490e+001 5.599748e+000 -3.000000e+001
      endloop
   endfacet
   facet normal 0.000000e+000 0.000000e+000 -1.000000e+000
      outer loop
         vertex 1.671490e+001 5.599748e+000 -3.000000e+001
         vertex 1.905367e+001 8.039971e+000 -3.000000e+001
         vertex 1.588772e+001 4.119012e+000 -3.000000e+001
      endloop
   endfacet
   facet normal 0.000000e+000 0.000000e+000 -1.000000e+000
      outer loop
         vertex 1.503603e+001 8.480592e-001 -3.000000e+001
         vertex 1.532267e+001 2.519781e+000 -3.000000e+001
         vertex 2.207177e+001 9.561667e+000 -3.000000e+001
      endloop
   endfacet
   facet normal 0.000000e+000 0.000000e+000 -1.000000e+000
      outer loop
         vertex 2.207177e+001 9.561667e+000 -3.000000e+001
         vertex 1.532267e+001 2.519781e+000 -3.000000e+001
         vertex 1.588772e+001 4.119012e+000 -3.000000e+001
      endloop
   endfacet
   facet normal 0.000000e+000 0.000000e+000 -1.000000e+000
      outer loop
         vertex 2.207177e+001 9.561667e+000 -3.000000e+001
         vertex 1.588772e+001 4.119012e+000 -3.000000e+001
         vertex 2.049796e+001 8.929258e+000 -3.000000e+001
      endloop
   endfacet
   facet normal 0.000000e+000 0.000000e+000 -1.000000e+000
      outer loop
         vertex 2.049796e+001 8.929258e+000 -3.000000e+001
         vertex 1.588772e+001 4.119012e+000 -3.000000e+001
         vertex 1.905367e+001 8.039971e+000 -3.000000e+001
      endloop
   endfacet
   facet normal 0.000000e+000 0.000000e+000 -1.000000e+000
      outer loop
         vertex 3.278036e+001 -6.282200e+000 -3.000000e+001
         vertex 3.160675e+001 -7.506723e+000 -3.000000e+001
         vertex 1.671490e+001 -5.599748e+000 -3.000000e+001
      endloop
   endfacet
   facet normal 0.000000e+000 0.000000e+000 -1.000000e+000
      outer loop
         vertex 1.671490e+001 -5.599748e+000 -3.000000e+001
         vertex 3.160675e+001 -7.506723e+000 -3.000000e+001
         vertex 3.024307e+001 -8.515291e+000 -3.000000e+001
      endloop
   endfacet
   facet normal 0.000000e+000 0.000000e+000 -1.000000e+000
      outer loop
         vertex 1.671490e+001 -5.599748e+000 -3.000000e+001
         vertex 3.024307e+001 -8.515291e+000 -3.000000e+001
         vertex 2.872857e+001 -9.278891e+000 -3.000000e+001
      endloop
   endfacet
   facet normal 0.000000e+000 0.000000e+000 -1.000000e+000
      outer loop
         vertex 2.872857e+001 -9.278891e+000 -3.000000e+001
         vertex 2.710679e+001 -9.775552e+000 -3.000000e+001
         vertex 1.671490e+001 -5.599748e+000 -3.000000e+001
      endloop
   endfacet
   facet normal 0.000000e+000 0.000000e+000 -1.000000e+000
      outer loop
         vertex 1.671490e+001 -5.599748e+000 -3.000000e+001
         vertex 2.710679e+001 -9.775552e+000 -3.000000e+001
         vertex 2.542441e+001 -9.990990e+000 -3.000000e+001
      endloop
   endfacet
   facet normal 0.000000e+000 0.000000e+000 -1.000000e+000
      outer loop
         vertex 1.671490e+001 -5.599748e+000 -3.000000e+001
         vertex 2.542441e+001 -9.990990e+000 -3.000000e+001
         vertex 2.372982e+001 -9.919004e+000 -3.000000e+001
      endloop
   endfacet
endsolid