solid Platform_Rocker2_Default_sldprt
   facet normal -1.000000e+000 -1.224647e-016 0.000000e+000
      outer loop
         vertex 3.429011e-014 -2.800000e+002 1.000000e+001
         vertex 2.449294e-015 -2.000000e+001 1.000000e+001
         vertex 3.429011e-014 -2.800000e+002 0.000000e+000
      endloop
   endfacet
   facet normal -1.000000e+000 -1.224647e-016 0.000000e+000
      outer loop
         vertex 3.429011e-014 -2.800000e+002 0.000000e+000
         vertex 2.449294e-015 -2.000000e+001 1.000000e+001
         vertex 2.449294e-015 -2.000000e+001 0.000000e+000
      endloop
   endfacet
   facet normal 0.000000e+000 -1.000000e+000 0.000000e+000
      outer loop
         vertex 2.000000e+001 -3.000000e+002 0.000000e+000
         vertex 9.000000e+001 -3.000000e+002 0.000000e+000
         vertex 2.000000e+001 -3.000000e+002 1.000000e+001
      endloop
   endfacet
   facet normal 0.000000e+000 -1.000000e+000 0.000000e+000
      outer loop
         vertex 2.000000e+001 -3.000000e+002 1.000000e+001
         vertex 9.000000e+001 -3.000000e+002 0.000000e+000
         vertex 9.000000e+001 -3.000000e+002 1.000000e+001
      endloop
   endfacet
   facet normal 1.000000e+000 9.251858e-017 0.000000e+000
      outer loop
         vertex 1.100000e+002 -2.800000e+002 0.000000e+000
         vertex 1.100000e+002 -2.000000e+001 0.000000e+000
         vertex 1.100000e+002 -2.800000e+002 1.000000e+001
      endloop
   endfacet
   facet normal 1.000000e+000 9.251858e-017 0.000000e+000
      outer loop
         vertex 1.100000e+002 -2.800000e+002 1.000000e+001
         vertex 1.100000e+002 -2.000000e+001 0.000000e+000
         vertex 1.100000e+002 -2.000000e+001 1.000000e+001
      endloop
   endfacet
   facet normal 0.000000e+000 1.000000e+000 0.000000e+000
      outer loop
         vertex 2.000000e+001 0.000000e+000 1.000000e+001
         vertex 9.000000e+001 0.000000e+000 1.000000e+001
         vertex 2.000000e+001 0.000000e+000 0.000000e+000
      endloop
   endfacet
   facet normal 0.000000e+000 1.000000e+000 0.000000e+000
      outer loop
         vertex 2.000000e+001 0.000000e+000 0.000000e+000
         vertex 9.000000e+001 0.000000e+000 1.000000e+001
         vertex 9.000000e+001 0.000000e+000 0.000000e+000
      endloop
   endfacet
   facet normal 0.000000e+000 0.000000e+000 1.000000e+000
      outer loop
         vertex 1.100000e+002 -2.800000e+002 1.000000e+001
         vertex 1.100000e+002 -2.000000e+001 1.000000e+001
         vertex 9.000000e+001 0.000000e+000 1.000000e+001
      endloop
   endfacet
   facet normal 0.000000e+000 0.000000e+000 1.000000e+000
      outer loop
         vertex 9.000000e+001 0.000000e+000 1.000000e+001
         vertex 1.100000e+002 -2.000000e+001 1.000000e+001
         vertex 1.097538e+002 -1.687131e+001 1.000000e+001
      endloop
   endfacet
   facet normal 0.000000e+000 0.000000e+000 1.000000e+000
      outer loop
         vertex 3.469447e-015 -2.000000e+001 1.000000e+001
         vertex 3.469447e-014 -2.800000e+002 1.000000e+001
         vertex 2.000000e+001 -3.000000e+002 1.000000e+001
      endloop
   endfacet
   facet normal 0.000000e+000 0.000000e+000 1.000000e+000
      outer loop
         vertex 8.244295e+000 -2.961803e+002 1.000000e+001
         vertex 1.092019e+001 -2.978201e+002 1.000000e+001
         vertex 3.469447e-014 -2.800000e+002 1.000000e+001
      endloop
   endfacet
   facet normal 0.000000e+000 0.000000e+000 1.000000e+000
      outer loop
         vertex 1.687131e+001 -2.462332e-001 1.000000e+001
         vertex 3.469447e-015 -2.000000e+001 1.000000e+001
         vertex 2.000000e+001 0.000000e+000 1.000000e+001
      endloop
   endfacet
   facet normal 0.000000e+000 0.000000e+000 1.000000e+000
      outer loop
         vertex 2.000000e+001 0.000000e+000 1.000000e+001
         vertex 3.469447e-015 -2.000000e+001 1.000000e+001
         vertex 2.000000e+001 -3.000000e+002 1.000000e+001
      endloop
   endfacet
   facet normal 0.000000e+000 0.000000e+000 1.000000e+000
      outer loop
         vertex 2.000000e+001 0.000000e+000 1.000000e+001
         vertex 2.000000e+001 -3.000000e+002 1.000000e+001
         vertex 9.000000e+001 0.000000e+000 1.000000e+001
      endloop
   endfacet
   facet normal 0.000000e+000 0.000000e+000 1.000000e+000
      outer loop
         vertex 9.000000e+001 0.000000e+000 1.000000e+001
         vertex 2.000000e+001 -3.000000e+002 1.000000e+001
         vertex 9.000000e+001 -3.000000e+002 1.000000e+001
      endloop
   endfacet
   facet normal 0.000000e+000 0.000000e+000 1.000000e+000
      outer loop
         vertex 9.000000e+001 0.000000e+000 1.000000e+001
         vertex 9.000000e+001 -3.000000e+002 1.000000e+001
         vertex 1.100000e+002 -2.800000e+002 1.000000e+001
      endloop
   endfacet
   facet normal 0.000000e+000 0.000000e+000 1.000000e+000
      outer loop
         vertex 1.100000e+002 -2.800000e+002 1.000000e+001
         vertex 9.000000e+001 -3.000000e+002 1.000000e+001
         vertex 9.312868e+001 -2.997538e+002 1.000000e+001
      endloop
   endfacet
   facet normal 0.000000e+000 0.000000e+000 1.000000e+000
      outer loop
         vertex 9.312868e+001 -2.997538e+002 1.000000e+001
         vertex 9.618034e+001 -2.990211e+002 1.000000e+001
         vertex 1.100000e+002 -2.800000e+002 1.000000e+001
      endloop
   endfacet
   facet normal 0.000000e+000 0.000000e+000 1.000000e+000
      outer loop
         vertex 1.100000e+002 -2.800000e+002 1.000000e+001
         vertex 9.618034e+001 -2.990211e+002 1.000000e+001
         vertex 9.907981e+001 -2.978201e+002 1.000000e+001
      endloop
   endfacet
   facet normal 0.000000e+000 0.000000e+000 1.000000e+000
      outer loop
         vertex 1.100000e+002 -2.800000e+002 1.000000e+001
         vertex 9.907981e+001 -2.978201e+002 1.000000e+001
         vertex 1.017557e+002 -2.961803e+002 1.000000e+001
      endloop
   endfacet
   facet normal 0.000000e+000 0.000000e+000 1.000000e+000
      outer loop
         vertex 1.061803e+002 -2.917557e+002 1.000000e+001
         vertex 1.078201e+002 -2.890798e+002 1.000000e+001
         vertex 1.090211e+002 -2.861804e+002 1.000000e+001
      endloop
   endfacet
   facet normal 0.000000e+000 0.000000e+000 1.000000e+000
      outer loop
         vertex 1.687131e+001 -2.462332e-001 1.000000e+001
         vertex 1.381966e+001 -9.788696e-001 1.000000e+001
         vertex 3.469447e-015 -2.000000e+001 1.000000e+001
      endloop
   endfacet
   facet normal 0.000000e+000 0.000000e+000 1.000000e+000
      outer loop
         vertex 3.469447e-015 -2.000000e+001 1.000000e+001
         vertex 1.381966e+001 -9.788696e-001 1.000000e+001
         vertex 1.092019e+001 -2.179869e+000 1.000000e+001
      endloop
   endfacet
   facet normal 0.000000e+000 0.000000e+000 1.000000e+000
      outer loop
         vertex 3.469447e-015 -2.000000e+001 1.000000e+001
         vertex 1.092019e+001 -2.179869e+000 1.000000e+001
         vertex 8.244295e+000 -3.819660e+000 1.000000e+001
      endloop
   endfacet
   facet normal 0.000000e+000 0.000000e+000 1.000000e+000
      outer loop
         vertex 3.819660e+000 -8.244295e+000 1.000000e+001
         vertex 2.179869e+000 -1.092019e+001 1.000000e+001
         vertex 9.788696e-001 -1.381966e+001 1.000000e+001
      endloop
   endfacet
   facet normal 0.000000e+000 0.000000e+000 1.000000e+000
      outer loop
         vertex 1.017557e+002 -2.961803e+002 1.000000e+001
         vertex 1.041421e+002 -2.941421e+002 1.000000e+001
         vertex 1.100000e+002 -2.800000e+002 1.000000e+001
      endloop
   endfacet
   facet normal 0.000000e+000 0.000000e+000 1.000000e+000
      outer loop
         vertex 1.100000e+002 -2.800000e+002 1.000000e+001
         vertex 1.041421e+002 -2.941421e+002 1.000000e+001
         vertex 1.061803e+002 -2.917557e+002 1.000000e+001
      endloop
   endfacet
   facet normal 0.000000e+000 0.000000e+000 1.000000e+000
      outer loop
         vertex 1.100000e+002 -2.800000e+002 1.000000e+001
         vertex 1.061803e+002 -2.917557e+002 1.000000e+001
         vertex 1.097538e+002 -2.831287e+002 1.000000e+001
      endloop
   endfacet
   facet normal 0.000000e+000 0.000000e+000 1.000000e+000
      outer loop
         vertex 1.097538e+002 -2.831287e+002 1.000000e+001
         vertex 1.061803e+002 -2.917557e+002 1.000000e+001
         vertex 1.090211e+002 -2.861804e+002 1.000000e+001
      endloop
   endfacet
   facet normal 0.000000e+000 0.000000e+000 1.000000e+000
      outer loop
         vertex 8.244295e+000 -3.819660e+000 1.000000e+001
         vertex 5.857864e+000 -5.857864e+000 1.000000e+001
         vertex 3.469447e-015 -2.000000e+001 1.000000e+001
      endloop
   endfacet
   facet normal 0.000000e+000 0.000000e+000 1.000000e+000
      outer loop
         vertex 3.469447e-015 -2.000000e+001 1.000000e+001
         vertex 5.857864e+000 -5.857864e+000 1.000000e+001
         vertex 3.819660e+000 -8.244295e+000 1.000000e+001
      endloop
   endfacet
   facet normal 0.000000e+000 0.000000e+000 1.000000e+000
      outer loop
         vertex 3.469447e-015 -2.000000e+001 1.000000e+001
         vertex 3.819660e+000 -8.244295e+000 1.000000e+001
         vertex 2.462332e-001 -1.687131e+001 1.000000e+001
      endloop
   endfacet
   facet normal 0.000000e+000 0.000000e+000 1.000000e+000
      outer loop
         vertex 2.462332e-001 -1.687131e+001 1.000000e+001
         vertex 3.819660e+000 -8.244295e+000 1.000000e+001
         vertex 9.788696e-001 -1.381966e+001 1.000000e+001
      endloop
   endfacet
   facet normal 0.000000e+000 0.000000e+000 1.000000e+000
      outer loop
         vertex 1.092019e+001 -2.978201e+002 1.000000e+001
         vertex 1.381966e+001 -2.990211e+002 1.000000e+001
         vertex 3.469447e-014 -2.800000e+002 1.000000e+001
      endloop
   endfacet
   facet normal 0.000000e+000 0.000000e+000 1.000000e+000
      outer loop
         vertex 3.469447e-014 -2.800000e+002 1.000000e+001
         vertex 1.381966e+001 -2.990211e+002 1.000000e+001
         vertex 1.687131e+001 -2.997538e+002 1.000000e+001
      endloop
   endfacet
   facet normal 0.000000e+000 0.000000e+000 1.000000e+000
      outer loop
         vertex 3.469447e-014 -2.800000e+002 1.000000e+001
         vertex 1.687131e+001 -2.997538e+002 1.000000e+001
         vertex 2.000000e+001 -3.000000e+002 1.000000e+001
      endloop
   endfacet
   facet normal 0.000000e+000 0.000000e+000 1.000000e+000
      outer loop
         vertex 1.017557e+002 -3.819660e+000 1.000000e+001
         vertex 9.907981e+001 -2.179869e+000 1.000000e+001
         vertex 9.618034e+001 -9.788696e-001 1.000000e+001
      endloop
   endfacet
   facet normal 0.000000e+000 0.000000e+000 1.000000e+000
      outer loop
         vertex 2.179869e+000 -2.890798e+002 1.000000e+001
         vertex 3.819660e+000 -2.917557e+002 1.000000e+001
         vertex 9.788696e-001 -2.861804e+002 1.000000e+001
      endloop
   endfacet
   facet normal 0.000000e+000 0.000000e+000 1.000000e+000
      outer loop
         vertex 9.788696e-001 -2.861804e+002 1.000000e+001
         vertex 3.819660e+000 -2.917557e+002 1.000000e+001
         vertex 2.462332e-001 -2.831287e+002 1.000000e+001
      endloop
   endfacet
   facet normal 0.000000e+000 0.000000e+000 1.000000e+000
      outer loop
         vertex 2.462332e-001 -2.831287e+002 1.000000e+001
         vertex 3.819660e+000 -2.917557e+002 1.000000e+001
         vertex 3.469447e-014 -2.800000e+002 1.000000e+001
      endloop
   endfacet
   facet normal 0.000000e+000 0.000000e+000 1.000000e+000
      outer loop
         vertex 3.469447e-014 -2.800000e+002 1.000000e+001
         vertex 3.819660e+000 -2.917557e+002 1.000000e+001
         vertex 5.857864e+000 -2.941421e+002 1.000000e+001
      endloop
   endfacet
   facet normal 0.000000e+000 0.000000e+000 1.000000e+000
      outer loop
         vertex 3.469447e-014 -2.800000e+002 1.000000e+001
         vertex 5.857864e+000 -2.941421e+002 1.000000e+001
         vertex 8.244295e+000 -2.961803e+002 1.000000e+001
      endloop
   endfacet
   facet normal 0.000000e+000 0.000000e+000 1.000000e+000
      outer loop
         vertex 1.097538e+002 -1.687131e+001 1.000000e+001
         vertex 1.090211e+002 -1.381966e+001 1.000000e+001
         vertex 9.000000e+001 0.000000e+000 1.000000e+001
      endloop
   endfacet
   facet normal 0.000000e+000 0.000000e+000 1.000000e+000
      outer loop
         vertex 9.000000e+001 0.000000e+000 1.000000e+001
         vertex 1.090211e+002 -1.381966e+001 1.000000e+001
         vertex 1.078201e+002 -1.092019e+001 1.000000e+001
      endloop
   endfacet
   facet normal 0.000000e+000 0.000000e+000 1.000000e+000
      outer loop
         vertex 9.000000e+001 0.000000e+000 1.000000e+001
         vertex 1.078201e+002 -1.092019e+001 1.000000e+001
         vertex 1.061803e+002 -8.244295e+000 1.000000e+001
      endloop
   endfacet
   facet normal 0.000000e+000 0.000000e+000 1.000000e+000
      outer loop
         vertex 1.061803e+002 -8.244295e+000 1.000000e+001
         vertex 1.041421e+002 -5.857864e+000 1.000000e+001
         vertex 9.000000e+001 0.000000e+000 1.000000e+001
      endloop
   endfacet
   facet normal 0.000000e+000 0.000000e+000 1.000000e+000
      outer loop
         vertex 9.000000e+001 0.000000e+000 1.000000e+001
         vertex 1.041421e+002 -5.857864e+000 1.000000e+001
         vertex 1.017557e+002 -3.819660e+000 1.000000e+001
      endloop
   endfacet
   facet normal 0.000000e+000 0.000000e+000 1.000000e+000
      outer loop
         vertex 9.000000e+001 0.000000e+000 1.000000e+001
         vertex 1.017557e+002 -3.819660e+000 1.000000e+001
         vertex 9.312868e+001 -2.462332e-001 1.000000e+001
      endloop
   endfacet
   facet normal 0.000000e+000 0.000000e+000 1.000000e+000
      outer loop
         vertex 9.312868e+001 -2.462332e-001 1.000000e+001
         vertex 1.017557e+002 -3.819660e+000 1.000000e+001
         vertex 9.618034e+001 -9.788696e-001 1.000000e+001
      endloop
   endfacet
   facet normal 0.000000e+000 0.000000e+000 -1.000000e+000
      outer loop
         vertex 2.000000e+001 0.000000e+000 0.000000e+000
         vertex 9.000000e+001 0.000000e+000 0.000000e+000
         vertex 1.100000e+002 -2.000000e+001 0.000000e+000
      endloop
   endfacet
   facet normal 0.000000e+000 0.000000e+000 -1.000000e+000
      outer loop
         vertex 1.090211e+002 -2.861804e+002 0.000000e+000
         vertex 1.078201e+002 -2.890798e+002 0.000000e+000
         vertex 1.061803e+002 -2.917557e+002 0.000000e+000
      endloop
   endfacet
   facet normal 0.000000e+000 0.000000e+000 -1.000000e+000
      outer loop
         vertex 1.017557e+002 -2.961803e+002 0.000000e+000
         vertex 9.907981e+001 -2.978201e+002 0.000000e+000
         vertex 1.100000e+002 -2.800000e+002 0.000000e+000
      endloop
   endfacet
   facet normal 0.000000e+000 0.000000e+000 -1.000000e+000
      outer loop
         vertex 1.100000e+002 -2.800000e+002 0.000000e+000
         vertex 9.907981e+001 -2.978201e+002 0.000000e+000
         vertex 9.618034e+001 -2.990211e+002 0.000000e+000
      endloop
   endfacet
   facet normal 0.000000e+000 0.000000e+000 -1.000000e+000
      outer loop
         vertex 1.100000e+002 -2.800000e+002 0.000000e+000
         vertex 3.429011e-014 -2.800000e+002 0.000000e+000
         vertex 1.100000e+002 -2.000000e+001 0.000000e+000
      endloop
   endfacet
   facet normal 0.000000e+000 0.000000e+000 -1.000000e+000
      outer loop
         vertex 1.100000e+002 -2.000000e+001 0.000000e+000
         vertex 3.429011e-014 -2.800000e+002 0.000000e+000
         vertex 3.469447e-015 -2.000000e+001 0.000000e+000
      endloop
   endfacet
   facet normal 0.000000e+000 0.000000e+000 -1.000000e+000
      outer loop
         vertex 1.100000e+002 -2.000000e+001 0.000000e+000
         vertex 3.469447e-015 -2.000000e+001 0.000000e+000
         vertex 2.000000e+001 0.000000e+000 0.000000e+000
      endloop
   endfacet
   facet normal 0.000000e+000 0.000000e+000 -1.000000e+000
      outer loop
         vertex 2.000000e+001 0.000000e+000 0.000000e+000
         vertex 3.469447e-015 -2.000000e+001 0.000000e+000
         vertex 2.462332e-001 -1.687131e+001 0.000000e+000
      endloop
   endfacet
   facet normal 0.000000e+000 0.000000e+000 -1.000000e+000
      outer loop
         vertex 2.462332e-001 -1.687131e+001 0.000000e+000
         vertex 9.788696e-001 -1.381966e+001 0.000000e+000
         vertex 2.000000e+001 0.000000e+000 0.000000e+000
      endloop
   endfacet
   facet normal 0.000000e+000 0.000000e+000 -1.000000e+000
      outer loop
         vertex 2.000000e+001 0.000000e+000 0.000000e+000
         vertex 9.788696e-001 -1.381966e+001 0.000000e+000
         vertex 2.179869e+000 -1.092019e+001 0.000000e+000
      endloop
   endfacet
   facet normal 0.000000e+000 0.000000e+000 -1.000000e+000
      outer loop
         vertex 2.000000e+001 0.000000e+000 0.000000e+000
         vertex 2.179869e+000 -1.092019e+001 0.000000e+000
         vertex 3.819660e+000 -8.244295e+000 0.000000e+000
      endloop
   endfacet
   facet normal 0.000000e+000 0.000000e+000 -1.000000e+000
      outer loop
         vertex 2.000000e+001 0.000000e+000 0.000000e+000
         vertex 1.092019e+001 -2.179869e+000 0.000000e+000
         vertex 1.687131e+001 -2.462332e-001 0.000000e+000
      endloop
   endfacet
   facet normal 0.000000e+000 0.000000e+000 -1.000000e+000
      outer loop
         vertex 1.687131e+001 -2.462332e-001 0.000000e+000
         vertex 1.092019e+001 -2.179869e+000 0.000000e+000
         vertex 1.381966e+001 -9.788696e-001 0.000000e+000
      endloop
   endfacet
   facet normal 0.000000e+000 0.000000e+000 -1.000000e+000
      outer loop
         vertex 1.061803e+002 -8.244295e+000 0.000000e+000
         vertex 1.078201e+002 -1.092019e+001 0.000000e+000
         vertex 9.000000e+001 0.000000e+000 0.000000e+000
      endloop
   endfacet
   facet normal 0.000000e+000 0.000000e+000 -1.000000e+000
      outer loop
         vertex 1.090211e+002 -2.861804e+002 0.000000e+000
         vertex 1.061803e+002 -2.917557e+002 0.000000e+000
         vertex 1.097538e+002 -2.831287e+002 0.000000e+000
      endloop
   endfacet
   facet normal 0.000000e+000 0.000000e+000 -1.000000e+000
      outer loop
         vertex 2.000000e+001 -3.000000e+002 0.000000e+000
         vertex 3.429011e-014 -2.800000e+002 0.000000e+000
         vertex 9.000000e+001 -3.000000e+002 0.000000e+000
      endloop
   endfacet
   facet normal 0.000000e+000 0.000000e+000 -1.000000e+000
      outer loop
         vertex 9.000000e+001 -3.000000e+002 0.000000e+000
         vertex 3.429011e-014 -2.800000e+002 0.000000e+000
         vertex 1.100000e+002 -2.800000e+002 0.000000e+000
      endloop
   endfacet
   facet normal 0.000000e+000 0.000000e+000 -1.000000e+000
      outer loop
         vertex 9.000000e+001 -3.000000e+002 0.000000e+000
         vertex 1.100000e+002 -2.800000e+002 0.000000e+000
         vertex 9.312868e+001 -2.997538e+002 0.000000e+000
      endloop
   endfacet
   facet normal 0.000000e+000 0.000000e+000 -1.000000e+000
      outer loop
         vertex 9.312868e+001 -2.997538e+002 0.000000e+000
         vertex 1.100000e+002 -2.800000e+002 0.000000e+000
         vertex 9.618034e+001 -2.990211e+002 0.000000e+000
      endloop
   endfacet
   facet normal 0.000000e+000 0.000000e+000 -1.000000e+000
      outer loop
         vertex 3.819660e+000 -8.244295e+000 0.000000e+000
         vertex 5.857864e+000 -5.857864e+000 0.000000e+000
         vertex 2.000000e+001 0.000000e+000 0.000000e+000
      endloop
   endfacet
   facet normal 0.000000e+000 0.000000e+000 -1.000000e+000
      outer loop
         vertex 2.000000e+001 0.000000e+000 0.000000e+000
         vertex 5.857864e+000 -5.857864e+000 0.000000e+000
         vertex 8.244295e+000 -3.819660e+000 0.000000e+000
      endloop
   endfacet
   facet normal 0.000000e+000 0.000000e+000 -1.000000e+000
      outer loop
         vertex 2.000000e+001 0.000000e+000 0.000000e+000
         vertex 8.244295e+000 -3.819660e+000 0.000000e+000
         vertex 1.092019e+001 -2.179869e+000 0.000000e+000
      endloop
   endfacet
   facet normal 0.000000e+000 0.000000e+000 -1.000000e+000
      outer loop
         vertex 9.618034e+001 -9.788696e-001 0.000000e+000
         vertex 9.907981e+001 -2.179869e+000 0.000000e+000
         vertex 1.017557e+002 -3.819660e+000 0.000000e+000
      endloop
   endfacet
   facet normal 0.000000e+000 0.000000e+000 -1.000000e+000
      outer loop
         vertex 1.078201e+002 -1.092019e+001 0.000000e+000
         vertex 1.090211e+002 -1.381966e+001 0.000000e+000
         vertex 9.000000e+001 0.000000e+000 0.000000e+000
      endloop
   endfacet
   facet normal 0.000000e+000 0.000000e+000 -1.000000e+000
      outer loop
         vertex 9.000000e+001 0.000000e+000 0.000000e+000
         vertex 1.090211e+002 -1.381966e+001 0.000000e+000
         vertex 1.097538e+002 -1.687131e+001 0.000000e+000
      endloop
   endfacet
   facet normal 0.000000e+000 0.000000e+000 -1.000000e+000
      outer loop
         vertex 9.000000e+001 0.000000e+000 0.000000e+000
         vertex 1.097538e+002 -1.687131e+001 0.000000e+000
         vertex 1.100000e+002 -2.000000e+001 0.000000e+000
      endloop
   endfacet
   facet normal 0.000000e+000 0.000000e+000 -1.000000e+000
      outer loop
         vertex 1.097538e+002 -2.831287e+002 0.000000e+000
         vertex 1.061803e+002 -2.917557e+002 0.000000e+000
         vertex 1.100000e+002 -2.800000e+002 0.000000e+000
      endloop
   endfacet
   facet normal 0.000000e+000 0.000000e+000 -1.000000e+000
      outer loop
         vertex 1.100000e+002 -2.800000e+002 0.000000e+000
         vertex 1.061803e+002 -2.917557e+002 0.000000e+000
         vertex 1.041421e+002 -2.941421e+002 0.000000e+000
      endloop
   endfacet
   facet normal 0.000000e+000 0.000000e+000 -1.000000e+000
      outer loop
         vertex 1.100000e+002 -2.800000e+002 0.000000e+000
         vertex 1.041421e+002 -2.941421e+002 0.000000e+000
         vertex 1.017557e+002 -2.961803e+002 0.000000e+000
      endloop
   endfacet
   facet normal 0.000000e+000 0.000000e+000 -1.000000e+000
      outer loop
         vertex 2.000000e+001 -3.000000e+002 0.000000e+000
         vertex 1.687131e+001 -2.997538e+002 0.000000e+000
         vertex 3.429011e-014 -2.800000e+002 0.000000e+000
      endloop
   endfacet
   facet normal 0.000000e+000 0.000000e+000 -1.000000e+000
      outer loop
         vertex 3.429011e-014 -2.800000e+002 0.000000e+000
         vertex 1.687131e+001 -2.997538e+002 0.000000e+000
         vertex 1.381966e+001 -2.990211e+002 0.000000e+000
      endloop
   endfacet
   facet normal 0.000000e+000 0.000000e+000 -1.000000e+000
      outer loop
         vertex 3.429011e-014 -2.800000e+002 0.000000e+000
         vertex 1.381966e+001 -2.990211e+002 0.000000e+000
         vertex 1.092019e+001 -2.978201e+002 0.000000e+000
      endloop
   endfacet
   facet normal 0.000000e+000 0.000000e+000 -1.000000e+000
      outer loop
         vertex 9.618034e+001 -9.788696e-001 0.000000e+000
         vertex 1.017557e+002 -3.819660e+000 0.000000e+000
         vertex 9.312868e+001 -2.462332e-001 0.000000e+000
      endloop
   endfacet
   facet normal 0.000000e+000 0.000000e+000 -1.000000e+000
      outer loop
         vertex 1.092019e+001 -2.978201e+002 0.000000e+000
         vertex 8.244295e+000 -2.961803e+002 0.000000e+000
         vertex 3.429011e-014 -2.800000e+002 0.000000e+000
      endloop
   endfacet
   facet normal 0.000000e+000 0.000000e+000 -1.000000e+000
      outer loop
         vertex 3.429011e-014 -2.800000e+002 0.000000e+000
         vertex 8.244295e+000 -2.961803e+002 0.000000e+000
         vertex 5.857864e+000 -2.941421e+002 0.000000e+000
      endloop
   endfacet
   facet normal 0.000000e+000 0.000000e+000 -1.000000e+000
      outer loop
         vertex 3.429011e-014 -2.800000e+002 0.000000e+000
         vertex 5.857864e+000 -2.941421e+002 0.000000e+000
         vertex 3.819660e+000 -2.917557e+002 0.000000e+000
      endloop
   endfacet
   facet normal 0.000000e+000 0.000000e+000 -1.000000e+000
      outer loop
         vertex 2.179869e+000 -2.890798e+002 0.000000e+000
         vertex 9.788696e-001 -2.861804e+002 0.000000e+000
         vertex 3.819660e+000 -2.917557e+002 0.000000e+000
      endloop
   endfacet
   facet normal 0.000000e+000 0.000000e+000 -1.000000e+000
      outer loop
         vertex 3.819660e+000 -2.917557e+002 0.000000e+000
         vertex 9.788696e-001 -2.861804e+002 0.000000e+000
         vertex 2.462332e-001 -2.831287e+002 0.000000e+000
      endloop
   endfacet
   facet normal 0.000000e+000 0.000000e+000 -1.000000e+000
      outer loop
         vertex 3.819660e+000 -2.917557e+002 0.000000e+000
         vertex 2.462332e-001 -2.831287e+002 0.000000e+000
         vertex 3.429011e-014 -2.800000e+002 0.000000e+000
      endloop
   endfacet
   facet normal 0.000000e+000 0.000000e+000 -1.000000e+000
      outer loop
         vertex 9.312868e+001 -2.462332e-001 0.000000e+000
         vertex 1.017557e+002 -3.819660e+000 0.000000e+000
         vertex 9.000000e+001 0.000000e+000 0.000000e+000
      endloop
   endfacet
   facet normal 0.000000e+000 0.000000e+000 -1.000000e+000
      outer loop
         vertex 9.000000e+001 0.000000e+000 0.000000e+000
         vertex 1.017557e+002 -3.819660e+000 0.000000e+000
         vertex 1.041421e+002 -5.857864e+000 0.000000e+000
      endloop
   endfacet
   facet normal 0.000000e+000 0.000000e+000 -1.000000e+000
      outer loop
         vertex 9.000000e+001 0.000000e+000 0.000000e+000
         vertex 1.041421e+002 -5.857864e+000 0.000000e+000
         vertex 1.061803e+002 -8.244295e+000 0.000000e+000
      endloop
   endfacet
   facet normal -9.986320e-001 -5.228807e-002 0.000000e+000
      outer loop
         vertex 3.469447e-014 -2.800000e+002 1.000000e+001
         vertex 3.469447e-014 -2.800000e+002 0.000000e+000
         vertex 2.462332e-001 -2.831287e+002 0.000000e+000
      endloop
   endfacet
   facet normal -9.945168e-001 -1.045761e-001 0.000000e+000
      outer loop
         vertex 3.469447e-014 -2.800000e+002 1.000000e+001
         vertex 2.462332e-001 -2.831287e+002 0.000000e+000
         vertex 2.462332e-001 -2.831287e+002 1.000000e+001
      endloop
   endfacet
   facet normal -9.781576e-001 -2.078648e-001 0.000000e+000
      outer loop
         vertex 2.462332e-001 -2.831287e+002 1.000000e+001
         vertex 2.462332e-001 -2.831287e+002 0.000000e+000
         vertex 9.788696e-001 -2.861804e+002 0.000000e+000
      endloop
   endfacet
   facet normal -9.659134e-001 -2.588653e-001 0.000000e+000
      outer loop
         vertex 2.462332e-001 -2.831287e+002 1.000000e+001
         vertex 9.788696e-001 -2.861804e+002 0.000000e+000
         vertex 9.788696e-001 -2.861804e+002 1.000000e+001
      endloop
   endfacet
   facet normal -9.335976e-001 -3.583232e-001 0.000000e+000
      outer loop
         vertex 9.788696e-001 -2.861804e+002 1.000000e+001
         vertex 9.788696e-001 -2.861804e+002 0.000000e+000
         vertex 2.179869e+000 -2.890798e+002 0.000000e+000
      endloop
   endfacet
   facet normal -9.135259e-001 -4.067805e-001 0.000000e+000
      outer loop
         vertex 9.788696e-001 -2.861804e+002 1.000000e+001
         vertex 2.179869e+000 -2.890798e+002 0.000000e+000
         vertex 2.179869e+000 -2.890798e+002 1.000000e+001
      endloop
   endfacet
   facet normal -8.660494e-001 -4.999584e-001 0.000000e+000
      outer loop
         vertex 2.179869e+000 -2.890798e+002 1.000000e+001
         vertex 2.179869e+000 -2.890798e+002 0.000000e+000
         vertex 3.819660e+000 -2.917557e+002 0.000000e+000
      endloop
   endfacet
   facet normal -8.386444e-001 -5.446792e-001 0.000000e+000
      outer loop
         vertex 2.179869e+000 -2.890798e+002 1.000000e+001
         vertex 3.819660e+000 -2.917557e+002 0.000000e+000
         vertex 3.819660e+000 -2.917557e+002 1.000000e+001
      endloop
   endfacet
   facet normal -7.771761e-001 -6.292831e-001 0.000000e+000
      outer loop
         vertex 3.819660e+000 -2.917557e+002 1.000000e+001
         vertex 3.819660e+000 -2.917557e+002 0.000000e+000
         vertex 5.857864e+000 -2.941421e+002 0.000000e+000
      endloop
   endfacet
   facet normal -7.431127e-001 -6.691663e-001 0.000000e+000
      outer loop
         vertex 3.819660e+000 -2.917557e+002 1.000000e+001
         vertex 5.857864e+000 -2.941421e+002 0.000000e+000
         vertex 5.857864e+000 -2.941421e+002 1.000000e+001
      endloop
   endfacet
   facet normal -6.691663e-001 -7.431127e-001 0.000000e+000
      outer loop
         vertex 5.857864e+000 -2.941421e+002 1.000000e+001
         vertex 5.857864e+000 -2.941421e+002 0.000000e+000
         vertex 8.244295e+000 -2.961803e+002 0.000000e+000
      endloop
   endfacet
   facet normal -6.292831e-001 -7.771761e-001 0.000000e+000
      outer loop
         vertex 5.857864e+000 -2.941421e+002 1.000000e+001
         vertex 8.244295e+000 -2.961803e+002 0.000000e+000
         vertex 8.244295e+000 -2.961803e+002 1.000000e+001
      endloop
   endfacet
   facet normal -5.446792e-001 -8.386444e-001 0.000000e+000
      outer loop
         vertex 8.244295e+000 -2.961803e+002 1.000000e+001
         vertex 8.244295e+000 -2.961803e+002 0.000000e+000
         vertex 1.092019e+001 -2.978201e+002 0.000000e+000
      endloop
   endfacet
   facet normal -4.999584e-001 -8.660494e-001 0.000000e+000
      outer loop
         vertex 8.244295e+000 -2.961803e+002 1.000000e+001
         vertex 1.092019e+001 -2.978201e+002 0.000000e+000
         vertex 1.092019e+001 -2.978201e+002 1.000000e+001
      endloop
   endfacet
   facet normal -4.067805e-001 -9.135259e-001 0.000000e+000
      outer loop
         vertex 1.092019e+001 -2.978201e+002 1.000000e+001
         vertex 1.092019e+001 -2.978201e+002 0.000000e+000
         vertex 1.381966e+001 -2.990211e+002 0.000000e+000
      endloop
   endfacet
   facet normal -3.583232e-001 -9.335976e-001 0.000000e+000
      outer loop
         vertex 1.092019e+001 -2.978201e+002 1.000000e+001
         vertex 1.381966e+001 -2.990211e+002 0.000000e+000
         vertex 1.381966e+001 -2.990211e+002 1.000000e+001
      endloop
   endfacet
   facet normal -2.588653e-001 -9.659134e-001 0.000000e+000
      outer loop
         vertex 1.381966e+001 -2.990211e+002 1.000000e+001
         vertex 1.381966e+001 -2.990211e+002 0.000000e+000
         vertex 1.687131e+001 -2.997538e+002 0.000000e+000
      endloop
   endfacet
   facet normal -2.078648e-001 -9.781575e-001 0.000000e+000
      outer loop
         vertex 1.381966e+001 -2.990211e+002 1.000000e+001
         vertex 1.687131e+001 -2.997538e+002 0.000000e+000
         vertex 1.687131e+001 -2.997538e+002 1.000000e+001
      endloop
   endfacet
   facet normal -1.045761e-001 -9.945168e-001 0.000000e+000
      outer loop
         vertex 1.687131e+001 -2.997538e+002 1.000000e+001
         vertex 1.687131e+001 -2.997538e+002 0.000000e+000
         vertex 2.000000e+001 -3.000000e+002 0.000000e+000
      endloop
   endfacet
   facet normal -5.228807e-002 -9.986320e-001 0.000000e+000
      outer loop
         vertex 1.687131e+001 -2.997538e+002 1.000000e+001
         vertex 2.000000e+001 -3.000000e+002 0.000000e+000
         vertex 2.000000e+001 -3.000000e+002 1.000000e+001
      endloop
   endfacet
   facet normal 5.228807e-002 -9.986320e-001 0.000000e+000
      outer loop
         vertex 9.000000e+001 -3.000000e+002 1.000000e+001
         vertex 9.000000e+001 -3.000000e+002 0.000000e+000
         vertex 9.312868e+001 -2.997538e+002 0.000000e+000
      endloop
   endfacet
   facet normal 1.045761e-001 -9.945168e-001 0.000000e+000
      outer loop
         vertex 9.000000e+001 -3.000000e+002 1.000000e+001
         vertex 9.312868e+001 -2.997538e+002 0.000000e+000
         vertex 9.312868e+001 -2.997538e+002 1.000000e+001
      endloop
   endfacet
   facet normal 2.078648e-001 -9.781576e-001 0.000000e+000
      outer loop
         vertex 9.312868e+001 -2.997538e+002 1.000000e+001
         vertex 9.312868e+001 -2.997538e+002 0.000000e+000
         vertex 9.618034e+001 -2.990211e+002 0.000000e+000
      endloop
   endfacet
   facet normal 2.588653e-001 -9.659134e-001 0.000000e+000
      outer loop
         vertex 9.312868e+001 -2.997538e+002 1.000000e+001
         vertex 9.618034e+001 -2.990211e+002 0.000000e+000
         vertex 9.618034e+001 -2.990211e+002 1.000000e+001
      endloop
   endfacet
   facet normal 3.583232e-001 -9.335976e-001 0.000000e+000
      outer loop
         vertex 9.618034e+001 -2.990211e+002 1.000000e+001
         vertex 9.618034e+001 -2.990211e+002 0.000000e+000
         vertex 9.907981e+001 -2.978201e+002 0.000000e+000
      endloop
   endfacet
   facet normal 4.067805e-001 -9.135259e-001 0.000000e+000
      outer loop
         vertex 9.618034e+001 -2.990211e+002 1.000000e+001
         vertex 9.907981e+001 -2.978201e+002 0.000000e+000
         vertex 9.907981e+001 -2.978201e+002 1.000000e+001
      endloop
   endfacet
   facet normal 4.999584e-001 -8.660494e-001 0.000000e+000
      outer loop
         vertex 9.907981e+001 -2.978201e+002 1.000000e+001
         vertex 9.907981e+001 -2.978201e+002 0.000000e+000
         vertex 1.017557e+002 -2.961803e+002 0.000000e+000
      endloop
   endfacet
   facet normal 5.446792e-001 -8.386444e-001 0.000000e+000
      outer loop
         vertex 9.907981e+001 -2.978201e+002 1.000000e+001
         vertex 1.017557e+002 -2.961803e+002 0.000000e+000
         vertex 1.017557e+002 -2.961803e+002 1.000000e+001
      endloop
   endfacet
   facet normal 6.292831e-001 -7.771761e-001 0.000000e+000
      outer loop
         vertex 1.017557e+002 -2.961803e+002 1.000000e+001
         vertex 1.017557e+002 -2.961803e+002 0.000000e+000
         vertex 1.041421e+002 -2.941421e+002 0.000000e+000
      endloop
   endfacet
   facet normal 6.691663e-001 -7.431127e-001 0.000000e+000
      outer loop
         vertex 1.017557e+002 -2.961803e+002 1.000000e+001
         vertex 1.041421e+002 -2.941421e+002 0.000000e+000
         vertex 1.041421e+002 -2.941421e+002 1.000000e+001
      endloop
   endfacet
   facet normal 7.431127e-001 -6.691663e-001 0.000000e+000
      outer loop
         vertex 1.041421e+002 -2.941421e+002 1.000000e+001
         vertex 1.041421e+002 -2.941421e+002 0.000000e+000
         vertex 1.061803e+002 -2.917557e+002 0.000000e+000
      endloop
   endfacet
   facet normal 7.771761e-001 -6.292831e-001 0.000000e+000
      outer loop
         vertex 1.041421e+002 -2.941421e+002 1.000000e+001
         vertex 1.061803e+002 -2.917557e+002 0.000000e+000
         vertex 1.061803e+002 -2.917557e+002 1.000000e+001
      endloop
   endfacet
   facet normal 8.386444e-001 -5.446792e-001 0.000000e+000
      outer loop
         vertex 1.061803e+002 -2.917557e+002 1.000000e+001
         vertex 1.061803e+002 -2.917557e+002 0.000000e+000
         vertex 1.078201e+002 -2.890798e+002 0.000000e+000
      endloop
   endfacet
   facet normal 8.660494e-001 -4.999584e-001 0.000000e+000
      outer loop
         vertex 1.061803e+002 -2.917557e+002 1.000000e+001
         vertex 1.078201e+002 -2.890798e+002 0.000000e+000
         vertex 1.078201e+002 -2.890798e+002 1.000000e+001
      endloop
   endfacet
   facet normal 9.135259e-001 -4.067805e-001 0.000000e+000
      outer loop
         vertex 1.078201e+002 -2.890798e+002 1.000000e+001
         vertex 1.078201e+002 -2.890798e+002 0.000000e+000
         vertex 1.090211e+002 -2.861804e+002 0.000000e+000
      endloop
   endfacet
   facet normal 9.335976e-001 -3.583232e-001 0.000000e+000
      outer loop
         vertex 1.078201e+002 -2.890798e+002 1.000000e+001
         vertex 1.090211e+002 -2.861804e+002 0.000000e+000
         vertex 1.090211e+002 -2.861804e+002 1.000000e+001
      endloop
   endfacet
   facet normal 9.659134e-001 -2.588653e-001 0.000000e+000
      outer loop
         vertex 1.090211e+002 -2.861804e+002 1.000000e+001
         vertex 1.090211e+002 -2.861804e+002 0.000000e+000
         vertex 1.097538e+002 -2.831287e+002 0.000000e+000
      endloop
   endfacet
   facet normal 9.781575e-001 -2.078648e-001 0.000000e+000
      outer loop
         vertex 1.090211e+002 -2.861804e+002 1.000000e+001
         vertex 1.097538e+002 -2.831287e+002 0.000000e+000
         vertex 1.097538e+002 -2.831287e+002 1.000000e+001
      endloop
   endfacet
   facet normal 9.945168e-001 -1.045761e-001 0.000000e+000
      outer loop
         vertex 1.097538e+002 -2.831287e+002 1.000000e+001
         vertex 1.097538e+002 -2.831287e+002 0.000000e+000
         vertex 1.100000e+002 -2.800000e+002 0.000000e+000
      endloop
   endfacet
   facet normal 9.986320e-001 -5.228807e-002 0.000000e+000
      outer loop
         vertex 1.097538e+002 -2.831287e+002 1.000000e+001
         vertex 1.100000e+002 -2.800000e+002 0.000000e+000
         vertex 1.100000e+002 -2.800000e+002 1.000000e+001
      endloop
   endfacet
   facet normal -5.228807e-002 9.986320e-001 0.000000e+000
      outer loop
         vertex 2.000000e+001 0.000000e+000 1.000000e+001
         vertex 2.000000e+001 0.000000e+000 0.000000e+000
         vertex 1.687131e+001 -2.462332e-001 0.000000e+000
      endloop
   endfacet
   facet normal -1.045761e-001 9.945168e-001 0.000000e+000
      outer loop
         vertex 2.000000e+001 0.000000e+000 1.000000e+001
         vertex 1.687131e+001 -2.462332e-001 0.000000e+000
         vertex 1.687131e+001 -2.462332e-001 1.000000e+001
      endloop
   endfacet
   facet normal -2.078648e-001 9.781576e-001 0.000000e+000
      outer loop
         vertex 1.687131e+001 -2.462332e-001 1.000000e+001
         vertex 1.687131e+001 -2.462332e-001 0.000000e+000
         vertex 1.381966e+001 -9.788696e-001 0.000000e+000
      endloop
   endfacet
   facet normal -2.588653e-001 9.659134e-001 0.000000e+000
      outer loop
         vertex 1.687131e+001 -2.462332e-001 1.000000e+001
         vertex 1.381966e+001 -9.788696e-001 0.000000e+000
         vertex 1.381966e+001 -9.788696e-001 1.000000e+001
      endloop
   endfacet
   facet normal -3.583232e-001 9.335976e-001 0.000000e+000
      outer loop
         vertex 1.381966e+001 -9.788696e-001 1.000000e+001
         vertex 1.381966e+001 -9.788696e-001 0.000000e+000
         vertex 1.092019e+001 -2.179869e+000 0.000000e+000
      endloop
   endfacet
   facet normal -4.067805e-001 9.135259e-001 0.000000e+000
      outer loop
         vertex 1.381966e+001 -9.788696e-001 1.000000e+001
         vertex 1.092019e+001 -2.179869e+000 0.000000e+000
         vertex 1.092019e+001 -2.179869e+000 1.000000e+001
      endloop
   endfacet
   facet normal -4.999584e-001 8.660494e-001 0.000000e+000
      outer loop
         vertex 1.092019e+001 -2.179869e+000 1.000000e+001
         vertex 1.092019e+001 -2.179869e+000 0.000000e+000
         vertex 8.244295e+000 -3.819660e+000 0.000000e+000
      endloop
   endfacet
   facet normal -5.446792e-001 8.386444e-001 0.000000e+000
      outer loop
         vertex 1.092019e+001 -2.179869e+000 1.000000e+001
         vertex 8.244295e+000 -3.819660e+000 0.000000e+000
         vertex 8.244295e+000 -3.819660e+000 1.000000e+001
      endloop
   endfacet
   facet normal -6.292831e-001 7.771761e-001 0.000000e+000
      outer loop
         vertex 8.244295e+000 -3.819660e+000 1.000000e+001
         vertex 8.244295e+000 -3.819660e+000 0.000000e+000
         vertex 5.857864e+000 -5.857864e+000 0.000000e+000
      endloop
   endfacet
   facet normal -6.691663e-001 7.431127e-001 0.000000e+000
      outer loop
         vertex 8.244295e+000 -3.819660e+000 1.000000e+001
         vertex 5.857864e+000 -5.857864e+000 0.000000e+000
         vertex 5.857864e+000 -5.857864e+000 1.000000e+001
      endloop
   endfacet
   facet normal -7.431127e-001 6.691663e-001 0.000000e+000
      outer loop
         vertex 5.857864e+000 -5.857864e+000 1.000000e+001
         vertex 5.857864e+000 -5.857864e+000 0.000000e+000
         vertex 3.819660e+000 -8.244295e+000 0.000000e+000
      endloop
   endfacet
   facet normal -7.771761e-001 6.292831e-001 0.000000e+000
      outer loop
         vertex 5.857864e+000 -5.857864e+000 1.000000e+001
         vertex 3.819660e+000 -8.244295e+000 0.000000e+000
         vertex 3.819660e+000 -8.244295e+000 1.000000e+001
      endloop
   endfacet
   facet normal -8.386444e-001 5.446792e-001 0.000000e+000
      outer loop
         vertex 3.819660e+000 -8.244295e+000 1.000000e+001
         vertex 3.819660e+000 -8.244295e+000 0.000000e+000
         vertex 2.179869e+000 -1.092019e+001 0.000000e+000
      endloop
   endfacet
   facet normal -8.660494e-001 4.999584e-001 0.000000e+000
      outer loop
         vertex 3.819660e+000 -8.244295e+000 1.000000e+001
         vertex 2.179869e+000 -1.092019e+001 0.000000e+000
         vertex 2.179869e+000 -1.092019e+001 1.000000e+001
      endloop
   endfacet
   facet normal -9.135259e-001 4.067805e-001 0.000000e+000
      outer loop
         vertex 2.179869e+000 -1.092019e+001 1.000000e+001
         vertex 2.179869e+000 -1.092019e+001 0.000000e+000
         vertex 9.788696e-001 -1.381966e+001 0.000000e+000
      endloop
   endfacet
   facet normal -9.335976e-001 3.583232e-001 0.000000e+000
      outer loop
         vertex 2.179869e+000 -1.092019e+001 1.000000e+001
         vertex 9.788696e-001 -1.381966e+001 0.000000e+000
         vertex 9.788696e-001 -1.381966e+001 1.000000e+001
      endloop
   endfacet
   facet normal -9.659134e-001 2.588653e-001 0.000000e+000
      outer loop
         vertex 9.788696e-001 -1.381966e+001 1.000000e+001
         vertex 9.788696e-001 -1.381966e+001 0.000000e+000
         vertex 2.462332e-001 -1.687131e+001 0.000000e+000
      endloop
   endfacet
   facet normal -9.781575e-001 2.078648e-001 0.000000e+000
      outer loop
         vertex 9.788696e-001 -1.381966e+001 1.000000e+001
         vertex 2.462332e-001 -1.687131e+001 0.000000e+000
         vertex 2.462332e-001 -1.687131e+001 1.000000e+001
      endloop
   endfacet
   facet normal -9.945168e-001 1.045761e-001 0.000000e+000
      outer loop
         vertex 2.462332e-001 -1.687131e+001 1.000000e+001
         vertex 2.462332e-001 -1.687131e+001 0.000000e+000
         vertex 3.469447e-015 -2.000000e+001 0.000000e+000
      endloop
   endfacet
   facet normal -9.986320e-001 5.228807e-002 0.000000e+000
      outer loop
         vertex 2.462332e-001 -1.687131e+001 1.000000e+001
         vertex 3.469447e-015 -2.000000e+001 0.000000e+000
         vertex 3.469447e-015 -2.000000e+001 1.000000e+001
      endloop
   endfacet
   facet normal 9.986320e-001 5.228807e-002 0.000000e+000
      outer loop
         vertex 1.100000e+002 -2.000000e+001 1.000000e+001
         vertex 1.100000e+002 -2.000000e+001 0.000000e+000
         vertex 1.097538e+002 -1.687131e+001 0.000000e+000
      endloop
   endfacet
   facet normal 9.945168e-001 1.045761e-001 0.000000e+000
      outer loop
         vertex 1.100000e+002 -2.000000e+001 1.000000e+001
         vertex 1.097538e+002 -1.687131e+001 0.000000e+000
         vertex 1.097538e+002 -1.687131e+001 1.000000e+001
      endloop
   endfacet
   facet normal 9.781576e-001 2.078648e-001 0.000000e+000
      outer loop
         vertex 1.097538e+002 -1.687131e+001 1.000000e+001
         vertex 1.097538e+002 -1.687131e+001 0.000000e+000
         vertex 1.090211e+002 -1.381966e+001 0.000000e+000
      endloop
   endfacet
   facet normal 9.659134e-001 2.588653e-001 0.000000e+000
      outer loop
         vertex 1.097538e+002 -1.687131e+001 1.000000e+001
         vertex 1.090211e+002 -1.381966e+001 0.000000e+000
         vertex 1.090211e+002 -1.381966e+001 1.000000e+001
      endloop
   endfacet
   facet normal 9.335976e-001 3.583232e-001 0.000000e+000
      outer loop
         vertex 1.090211e+002 -1.381966e+001 1.000000e+001
         vertex 1.090211e+002 -1.381966e+001 0.000000e+000
         vertex 1.078201e+002 -1.092019e+001 0.000000e+000
      endloop
   endfacet
   facet normal 9.135259e-001 4.067805e-001 0.000000e+000
      outer loop
         vertex 1.090211e+002 -1.381966e+001 1.000000e+001
         vertex 1.078201e+002 -1.092019e+001 0.000000e+000
         vertex 1.078201e+002 -1.092019e+001 1.000000e+001
      endloop
   endfacet
   facet normal 8.660494e-001 4.999584e-001 0.000000e+000
      outer loop
         vertex 1.078201e+002 -1.092019e+001 1.000000e+001
         vertex 1.078201e+002 -1.092019e+001 0.000000e+000
         vertex 1.061803e+002 -8.244295e+000 0.000000e+000
      endloop
   endfacet
   facet normal 8.386444e-001 5.446792e-001 0.000000e+000
      outer loop
         vertex 1.078201e+002 -1.092019e+001 1.000000e+001
         vertex 1.061803e+002 -8.244295e+000 0.000000e+000
         vertex 1.061803e+002 -8.244295e+000 1.000000e+001
      endloop
   endfacet
   facet normal 7.771761e-001 6.292831e-001 0.000000e+000
      outer loop
         vertex 1.061803e+002 -8.244295e+000 1.000000e+001
         vertex 1.061803e+002 -8.244295e+000 0.000000e+000
         vertex 1.041421e+002 -5.857864e+000 0.000000e+000
      endloop
   endfacet
   facet normal 7.431127e-001 6.691663e-001 0.000000e+000
      outer loop
         vertex 1.061803e+002 -8.244295e+000 1.000000e+001
         vertex 1.041421e+002 -5.857864e+000 0.000000e+000
         vertex 1.041421e+002 -5.857864e+000 1.000000e+001
      endloop
   endfacet
   facet normal 6.691663e-001 7.431127e-001 0.000000e+000
      outer loop
         vertex 1.041421e+002 -5.857864e+000 1.000000e+001
         vertex 1.041421e+002 -5.857864e+000 0.000000e+000
         vertex 1.017557e+002 -3.819660e+000 0.000000e+000
      endloop
   endfacet
   facet normal 6.292831e-001 7.771761e-001 0.000000e+000
      outer loop
         vertex 1.041421e+002 -5.857864e+000 1.000000e+001
         vertex 1.017557e+002 -3.819660e+000 0.000000e+000
         vertex 1.017557e+002 -3.819660e+000 1.000000e+001
      endloop
   endfacet
   facet normal 5.446792e-001 8.386444e-001 0.000000e+000
      outer loop
         vertex 1.017557e+002 -3.819660e+000 1.000000e+001
         vertex 1.017557e+002 -3.819660e+000 0.000000e+000
         vertex 9.907981e+001 -2.179869e+000 0.000000e+000
      endloop
   endfacet
   facet normal 4.999584e-001 8.660494e-001 0.000000e+000
      outer loop
         vertex 1.017557e+002 -3.819660e+000 1.000000e+001
         vertex 9.907981e+001 -2.179869e+000 0.000000e+000
         vertex 9.907981e+001 -2.179869e+000 1.000000e+001
      endloop
   endfacet
   facet normal 4.067805e-001 9.135259e-001 0.000000e+000
      outer loop
         vertex 9.907981e+001 -2.179869e+000 1.000000e+001
         vertex 9.907981e+001 -2.179869e+000 0.000000e+000
         vertex 9.618034e+001 -9.788696e-001 0.000000e+000
      endloop
   endfacet
   facet normal 3.583232e-001 9.335976e-001 0.000000e+000
      outer loop
         vertex 9.907981e+001 -2.179869e+000 1.000000e+001
         vertex 9.618034e+001 -9.788696e-001 0.000000e+000
         vertex 9.618034e+001 -9.788696e-001 1.000000e+001
      endloop
   endfacet
   facet normal 2.588653e-001 9.659134e-001 0.000000e+000
      outer loop
         vertex 9.618034e+001 -9.788696e-001 1.000000e+001
         vertex 9.618034e+001 -9.788696e-001 0.000000e+000
         vertex 9.312868e+001 -2.462332e-001 0.000000e+000
      endloop
   endfacet
   facet normal 2.078648e-001 9.781575e-001 0.000000e+000
      outer loop
         vertex 9.618034e+001 -9.788696e-001 1.000000e+001
         vertex 9.312868e+001 -2.462332e-001 0.000000e+000
         vertex 9.312868e+001 -2.462332e-001 1.000000e+001
      endloop
   endfacet
   facet normal 1.045761e-001 9.945168e-001 0.000000e+000
      outer loop
         vertex 9.312868e+001 -2.462332e-001 1.000000e+001
         vertex 9.312868e+001 -2.462332e-001 0.000000e+000
         vertex 9.000000e+001 0.000000e+000 0.000000e+000
      endloop
   endfacet
   facet normal 5.228807e-002 9.986320e-001 0.000000e+000
      outer loop
         vertex 9.312868e+001 -2.462332e-001 1.000000e+001
         vertex 9.000000e+001 0.000000e+000 0.000000e+000
         vertex 9.000000e+001 0.000000e+000 1.000000e+001
      endloop
   endfacet
endsolid